<?xml version="1.0" encoding="UTF-8"?>
<svg id="Capa_1" xmlns="http://www.w3.org/2000/svg" version="1.1" viewBox="0 0 1080 1080">
  <!-- Generator: Adobe Illustrator 29.8.1, SVG Export Plug-In . SVG Version: 2.1.1 Build 2)  -->
  <defs>
    <style>
      .st0 {
        fill: #eaeaea;
      }
    </style>
  </defs>
  <path class="st0" d="M10.7,1066.7l74.2-272.3C-95.4,480,91.2,76.3,447.8,12.8c401.3-71.4,729.4,317.2,588.3,701-110.7,301-464.2,432-747.4,280.7L10.7,1066.7ZM825.6,200.3C606.2,11.7,266.1,87.9,146,349.1c-65.4,142.2-47.3,302.3,36.8,432.1l-42.2,157.6,163.3-42c203.4,130.3,471.9,73.3,603.6-128.2,119.8-183.4,83-426.6-81.8-568.3Z"/>
  <path class="st0" d="M356,270.7c24.9-2.8,48,4.4,58.7,28.1,12,26.8,30.8,76.7,38.6,104.6,8.1,29.1-22.6,45.6-37.3,66.6-14.8,21.1-5.8,29.4,5.8,49,30.7,51.9,109.2,130.3,167.7,147.5,23.3,6.8,28-4.2,43-20,9.8-10.3,25.5-34.2,35.2-41.2,12-8.6,25.2-.4,37.1,5.1,27,12.3,70.3,34.4,94.6,50.6,19,12.7,14.6,24,10.8,44.8-10.4,55.8-63.8,91.5-118.6,95.4-59.2,4.3-169.1-47.9-217.4-82.5-83.4-59.7-214.7-217.9-207.6-325.3,3.1-46.4,38.1-116.9,89.3-122.7Z"/>
</svg>