<?xml version="1.0" encoding="UTF-8"?>
<svg id="Capa_2" data-name="Capa 2" xmlns="http://www.w3.org/2000/svg" viewBox="0 0 358.91 409.1">
  <defs>
    <style>
      .cls-1 {
        fill: #2f7ad3;
      }

      .cls-2 {
        fill: #fcda70;
      }

      .cls-3 {
        fill: #286da5;
      }

      .cls-4 {
        fill: #ddd;
      }

      .cls-5 {
        fill: #fff;
      }

      .cls-6 {
        fill: #f4586f;
      }

      .cls-7 {
        fill: #3e2945;
      }
    </style>
  </defs>
  <g id="P1">
    <g>
      <path class="cls-7" d="M221.62,58.42c4.06,11.12,14.04,19.07,24.59,24.43,10.55,5.36,22.03,8.71,32.57,14.09,14.18,7.22,26.85,18.63,32.37,33.56,5.52,14.92,2.51,33.49-9.65,43.74-8.78,7.39-20.92,9.65-32.38,8.97-28.39-1.69-54.94-21.15-65.11-47.71-10.17-26.56-3.4-58.78,16.6-79"/>
      <path class="cls-6" d="M84.87,301.11l20.36-152.68c3.14-23.58,21.25-42.34,44.69-46.37,21.82-3.75,51.08-4.72,84.12,4.87,20.7,6.01,35.88,23.74,38.69,45.11l20.78,158.42s-108.98,37.37-208.63-9.34Z"/>
      <path class="cls-6" d="M199.33,99.4s92.01-8.27,123.3,102.96c31.28,111.23-107.69,105.07-107.69,105.07l-5.72-20.53s72.95-27.96,64.81-70.25c-8.14-42.29-71.13-53.73-74.7-117.25Z"/>
      <path class="cls-6" d="M173.25,99.4s-92.01-8.27-123.3,102.96c-31.28,111.23,107.69,105.07,107.69,105.07l5.72-20.53s-72.95-27.96-64.81-70.25c8.14-42.29,71.13-53.73,74.7-117.25Z"/>
      <path class="cls-5" d="M105.8,320.51v-98.18c0-6.85,5.55-12.41,12.41-12.41h138.09c7.03,0,12.66,5.84,12.4,12.86l-3.87,104.68-159.02-6.95Z"/>
      <path class="cls-3" d="M342.7,323.15c-11.5-62.54-62.28-42.33-277.13,46.56l9.34,38.09s283.36,0,267.79-84.65Z"/>
      <path class="cls-7" d="M70.05,371.3S0,345.47,0,381.71s74.91,26.09,74.91,26.09l-4.86-36.5Z"/>
      <g>
        <path class="cls-2" d="M185.74,1.33c2.65-.22,5.39-.04,8.19.61,24.98,5.82,32.58,41.46,26.32,63.31-3.47,12.09-12.93,22.38-25.22,24.59-17.98,3.23-32.49-10.68-38.33-27.28-4.35-12.37-4.44-26.44.74-38.32,5.18-11.86,15.76-21.88,28.31-22.92Z"/>
        <path class="cls-2" d="M214.6,62.77c3.54,2.86,9.29,3.58,13.44,1.63,4.16-1.95,7.28-6.38,7.91-11.21.56-4.33-1.01-9.03-4.38-11.29-3.38-2.27-8.95-1.53-11.26,2.1l-5.71,18.76Z"/>
        <path class="cls-2" d="M161.33,62.77c-3.55,2.86-9.29,3.58-13.44,1.63-4.16-1.95-7.28-6.38-7.91-11.21-.56-4.33,1.01-9.03,4.38-11.29,3.38-2.27,8.95-1.53,11.26,2.1l5.71,18.76Z"/>
        <path class="cls-2" d="M209.69,51.06l2.82,52.43c.69,11.26-7.5,21.12-18.7,22.49h0c-12.93,1.58-24.25-8.7-23.91-21.73l1.08-48.46,38.71-4.74Z"/>
        <path class="cls-7" d="M170.47,82.97s7.26,6.35,19.21,6.78l-19.49,1.6.28-8.38Z"/>
        <path class="cls-7" d="M187.9,14.15s-5.36,21.67-34.38,27.78c0,0,.02-40.6,34.38-41.9,34.36-1.3,34.06,42.21,34.06,42.21,0,0-32.14-3.54-34.06-28.09Z"/>
        <g>
          <path class="cls-7" d="M184.26,62.32c.22-.46.34-.46.45-.47.04,0,.08-.02.12-.03.06-.02.12-.04.18-.03.09.01.16.09.22.17.05.06.09.11.15.14.03.01.05.01.08,0,.04,0,.08-.02.12-.04.06-.03.14-.09.18-.05.08,0,.16,0,.24-.02l.07-.02c.16-.04.3-.08.43-.04h.03s.08.03.15.11c.08.09.16.16.22.13.03-.01.04-.06.06-.09l.03-.07c.08-.14.19-.12.32-.09.13.03.15-.12.12-.24v-.03s0-.02,0-.02h.01s.02-.03.05-.03h.1s.08,0,.11-.01c.02,0,.03-.02.03-.05,0-.02-.03-.06-.06-.09l-.04-.05s.02-.08-.03-.13c-.07-.08-.03-.15,0-.23l.04-.09c.02-.09.01-.18,0-.29v-.19c.03-.13.07-.24.16-.37.06-.09.12-.17.15-.26.02-.08,0-.15-.03-.25-.08-.28-.1-.58-.05-.88,0-.05.02-.1-.01-.14-.02-.03-.06-.05-.09-.08-.06-.04-.12-.09-.14-.13-.03-.05-.02-.11-.01-.17l.02-.26v-.28s.02-.09.02-.09c0-.07,0-.14-.02-.21-.05-.11-.09-.24-.06-.37,0-.05.03-.09.05-.14.02-.05.04-.1.05-.15,0-.1-.03-.19-.07-.29-.07-.16-.14-.32,0-.49l.07-.08s.09-.1.1-.14c0-.04-.03-.08-.09-.15-.2-.24-.16-.47-.11-.68l.08-.31.1-.37.06-.27.05-.25c.02-.07.03-.14,0-.2l-.03-.08c-.02-.05-.05-.11-.05-.16,0-.07,0-.14.02-.21.02-.09.05-.18,0-.27-.02-.04-.07-.08-.11-.12-.07-.07-.14-.14-.15-.23,0-.06.03-.13.07-.19l.04-.06c.05-.09.06-.19.02-.28l-.03-.04s-.03-.07-.04-.11v-.22c0-.18-.01-.36.09-.55.12-.23.04-.45-.06-.68-.08-.21-.17-.43-.08-.66.05-.14.04-.29-.03-.43-.05-.09-.05-.17-.05-.26,0-.06,0-.13-.02-.19-.02-.06-.07-.12-.11-.19-.06-.09-.12-.17-.13-.26-.01-.12.05-.23.1-.32.03-.05.04-.09.05-.13l.02-.08c.04-.11.03-.23-.03-.37l-.08-.16c-.06-.11-.11-.22-.13-.33-.04-.21.03-.42.22-.64.07-.08,0-.23-.04-.34-.02-.05-.04-.1-.05-.14-.06-.24-.02-.41.02-.62l.03-.17c.02-.12.05-.35.79-.44.11,0,.24-.02.38-.03.31-.02.6-.01.84.01.59.06.7.22.75.3.06.09.08.2.06.32-.02.12-.08.24-.13.36l-.1.23-.09.22s0,.06,0,.1l.02.09c0,.08-.02.16-.04.24-.02.08-.04.16-.04.24,0,.16.06.31.12.46.02.04.03.09.09.13l.06.04.08.06c.12.1.08.2.05.29l-.03.08c-.03.12-.06.25-.09.38v.03c-.07.22-.02.62.13.8.1.11.15.22.15.33,0,.04,0,.08-.01.11l-.03.09c-.03.06-.05.11-.03.16.05.09,0,.2-.06.3-.02.04-.06.08-.1.12-.03.03-.06.07-.08.1-.07.11,0,.23.09.35.08.12.16.24.12.37-.02.05-.05.1-.09.16l-.06.1c-.04.08-.04.16,0,.25.01.04.04.08.07.12.04.05.08.11.09.16.04.18,0,.37.06.55.15.5.2.95.15,1.39v.08c-.01.08-.02.16-.05.24-.02.04-.08.08-.12.11l-.05.04s-.07.09-.08.13c-.01.1.06.2.15.31.08.1.16.2.17.31,0,.09-.04.19-.09.28l-.02.04c-.06.13-.1.25-.13.37-.02.08-.04.15-.07.23-.02.05.03.11.08.17l.07.09c.06.1.11.21.06.33-.05.1-.05.17-.06.22,0,.09-.02.17-.19.36-.12.13-.21.23-.02.32.17.08.26.19.27.33h0c0,.08-.02.16-.05.25-.04.12-.08.24-.01.34.33.51.45.92.39,1.31-.01.06-.07.13-.13.19-.06.06-.12.12-.1.17.01.06.06.11.11.16.09.09.17.19.12.31-.03.06-.1.13-.18.19-.05.04-.09.08-.12.12-.09.12-.02.24.04.39.05.11.1.24.08.37-.02.09-.07.17-.12.25-.04.06-.07.12-.1.18-.03.07-.03.13-.02.19.03.09,0,.16-.03.26-.1.28-.26.66-.47,1.05l-.08.15c-.17.32-.44.61-.82.83l-.06.04c-.3.17-.63.3-.96.33-.05,0-.1-.03-.16-.07-.03-.01-.06,0-.09,0-.04.02-.07.04-.11.07-.05.04-.11.07-.17.09-.08.02-.17,0-.26-.05l-.07-.03c-.09-.03-.18-.03-.29,0-.21.03-.43.07-.68.11-.06.01-.12.03-.18.04-.16.04-.34.08-.49,0-.05-.03-.1-.06-.15-.11-.02-.02-.04-.05-.06-.08-.03-.05-.06-.05-.07-.08-.07-.1-.17-.1-.28-.1h-.06c-.05,0-.11,0-.16.02-.09.02-.17.03-.26,0-.1-.03-.18-.09-.26-.19l-.03-.03c-.07-.08-.16-.19-.13-.54.02-.28.08-.59.17-.88.06-.19.12-.36.19-.51Z"/>
          <path class="cls-7" d="M180.63,66.75c.46-.21.51-.2.55-.19.02,0,.04,0,.07,0,.04,0,.08,0,.09,0,.02.02-.02.07-.06.12-.03.04-.06.08-.06.1l.02.02s.04,0,.07,0c.04,0,.12-.03.1,0,.02.02.05.03.09.04h.03c.07.03.15.05.13.13v.02s0,.05-.06.12c-.06.08-.11.16-.08.17.02,0,.05,0,.08-.01h.06c.12-.04.1.05.07.15-.04.11.08.08.2.05h.03s.02.01.02.01h0s.02.04.02.07c0,.02-.02.06-.03.09-.01.04-.03.07-.03.1,0,.02,0,.03.02.03.02,0,.05-.01.09-.03l.05-.02s.03.03.08,0c.09-.04.09,0,.09.06,0,.02,0,.05,0,.05.01.03.04.05.07.07l.05.03c0,.06,0,.12-.04.21-.02.06-.05.13-.04.17,0,.03.03.03.07.03.11,0,.17.04.21.14,0,.02.01.03.04.02.02-.01.04-.04.07-.06.04-.04.09-.08.11-.09.03-.01.04,0,.04.02l.04.06s.03.05.05.06l.02.02s.03.03.06.02c.05-.02.1-.04.12,0,0,.02,0,.04,0,.06,0,.03,0,.05,0,.07.02.02.06,0,.1-.01.07-.03.14-.06.11.08l-.02.08s-.01.11-.01.11c0,0,.04-.02.08-.06.15-.14.18-.07.21,0l.04.12.05.14.05.09.05.08s.02.05.05.04l.03-.02s.05-.03.06-.03c.02,0,.03.02.05.05.02.03.03.07.07.03.02-.02.04-.05.07-.08.04-.06.08-.12.11-.11.01.01.02.05.03.09v.04c.01.06.04.08.07.06l.02-.02s.04-.03.04-.03l.06.02s.1.03.13.14c.03.14.12.09.2.02.08-.06.15-.13.2-.03.03.06.07.06.12,0,.03-.04.05-.03.08-.02.02,0,.04,0,.06,0,.02-.02.04-.06.06-.1.03-.06.06-.11.08-.12.03,0,.06.06.08.12,0,.03.02.05.03.06l.02.03s.06.05.1,0l.05-.07c.03-.05.06-.1.09-.12.06-.04.11.05.17.24.02.07.07.02.09-.03.01-.02.03-.04.04-.05.06-.06.11-.02.17.03l.05.04s.1.06.21.79c.01.11.03.23.05.37.03.31.06.6.08.84.03.59-.03.69-.06.74-.04.06-.08.08-.14.06-.05-.02-.11-.08-.17-.14l-.1-.1-.09-.09s-.03,0-.04,0c-.01,0-.04.01-.04.01-.03,0-.07-.03-.1-.05-.03-.02-.07-.04-.1-.05-.06,0-.13.05-.2.1-.02.02-.04.03-.06.08l-.02.06-.03.08c-.05.11-.09.07-.13.03-.01-.01-.03-.03-.03-.03-.05-.03-.1-.08-.15-.12h-.01c-.08-.09-.26-.07-.35.06-.06.08-.12.12-.16.11-.02,0-.03-.01-.05-.02l-.03-.04s-.04-.06-.06-.04c-.05.04-.08-.02-.11-.09,0-.03-.02-.07-.03-.11,0-.03-.02-.07-.02-.09-.03-.07-.09-.02-.16.04-.06.06-.13.12-.17.06-.02-.02-.03-.06-.04-.11l-.02-.07s-.05-.06-.1-.04c-.02,0-.04.03-.07.05-.03.03-.06.06-.09.06-.08.01-.15-.05-.23-.03-.24.06-.44.03-.59-.1l-.03-.02s-.06-.04-.07-.09c0-.02,0-.08,0-.13v-.06s0-.08,0-.09c-.03-.03-.1.02-.17.08-.07.05-.14.1-.18.08-.04-.01-.05-.08-.06-.14v-.03c-.02-.08-.05-.14-.08-.19-.02-.03-.03-.07-.05-.11,0-.03-.05,0-.1.03l-.06.04c-.06.03-.13.05-.14-.03-.01-.07-.03-.09-.05-.11-.03-.03-.05-.06-.02-.25.02-.14.04-.23-.09-.09-.12.13-.21.18-.25.15h0s-.04-.06-.05-.11c-.02-.06-.03-.13-.1-.1-.35.14-.57.12-.65-.05-.01-.03,0-.09.02-.15.02-.06.04-.13.01-.13-.03,0-.07.02-.12.04-.08.04-.17.08-.17,0,0-.04.03-.11.06-.18.02-.05.04-.09.05-.12.03-.1-.05-.08-.13-.06-.07.01-.13.03-.16,0-.01-.03,0-.07,0-.12,0-.03.01-.07,0-.09,0-.03-.02-.03-.05-.02-.05.02-.06,0-.08-.02-.05-.07-.11-.15-.23-.19h-.05c-.11-.03-.2-.09-.26-.19v-.02c-.06-.08-.11-.17-.11-.29,0-.02.03-.05.06-.1.01-.02,0-.03,0-.03,0,0-.03,0-.05,0-.03,0-.06,0-.07-.01-.02-.02,0-.07.03-.11l.02-.04c.02-.05,0-.07-.02-.09-.06-.05-.13-.09-.21-.12-.02,0-.05-.01-.08-.02-.08-.01-.16-.03-.14-.11,0-.03.02-.06.04-.09,0-.01.03-.03.04-.06.03-.03.02-.04.04-.06.06-.07.02-.09-.02-.11h-.02s-.05-.03-.08-.03c-.05,0-.09-.02-.11-.05-.02-.03,0-.09.05-.16v-.02c.05-.06.1-.14.39-.32.24-.14.51-.29.79-.43.18-.09.35-.17.49-.24Z"/>
          <g>
            <path class="cls-7" d="M175.61,50.52c-.03.66.48,1.22,1.14,1.25.66.03,1.22-.48,1.25-1.14.03-.66-.48-1.22-1.14-1.25-.66-.03-1.22.48-1.25,1.14Z"/>
            <path class="cls-7" d="M175.31,50.49c-.18-.04-.18-.11-.19-.16,0-.01,0-.04-.01-.06,0-.03-.01-.06-.01-.09,0-.05.04-.09.08-.12.02-.02.05-.05.06-.08v-.04s.02-.04.02-.06c0-.04,0-.08.02-.1.02-.04.04-.08.06-.14l.02-.04c.04-.1.1-.19.19-.26l.02-.02s.06-.04.11-.05c.06,0,.12-.01.15-.05.02-.02.03-.04.04-.06l.02-.04c.06-.09.17-.12.27-.12.1,0,.17-.07.26-.13l.03-.02s.03,0,.04,0h.02s.06,0,.09,0c.02,0,.05.01.08.02.03.01.06.02.08.03.02,0,.04,0,.06,0,.02,0,.05-.02.07-.03h.04s.07,0,.11-.02c.06-.02.12,0,.17.03.02,0,.04.02.06.03.06.02.11.03.16.05l.09.03c.05.04.09.08.12.14.02.04.04.08.06.11.02.03.05.04.09.06.12.06.21.15.27.27.01.02.02.04.04.05h.05s.06.02.08.04c.02.02.03.04.04.07l.05.11.04.12v.04s.03.06.05.09c.03.04.06.1.06.16,0,.02,0,.04,0,.06,0,.03,0,.05-.01.07,0,.04.02.09.03.13.02.07.05.15-.01.22l-.03.03s-.04.04-.04.05c0,.02,0,.04.02.07.05.12,0,.23-.06.3l-.09.11-.11.12-.08.08-.08.07s-.05.03-.06.06l-.02.03-.04.06s-.05.03-.08.05c-.04.02-.07.03-.09.07-.01.02-.02.04-.02.06-.01.04-.03.08-.06.1-.02.01-.06.02-.09.01h-.03s-.08.01-.12.04l-.02.02s-.03.02-.04.03l-.09.03c-.07.02-.16.04-.24,0-.1-.03-.19,0-.29.02-.09.02-.2.03-.29-.02-.05-.03-.11-.05-.18-.05-.04,0-.08-.02-.11-.03-.03-.01-.05-.03-.08-.03-.03,0-.06,0-.09,0-.05,0-.09,0-.13-.03-.05-.03-.07-.08-.09-.12,0-.02-.02-.04-.03-.05l-.02-.03s-.06-.08-.12-.11l-.07-.04s-.09-.06-.13-.1c-.07-.07-.09-.18-.06-.29.01-.04-.04-.09-.07-.14-.01-.02-.03-.04-.03-.05-.05-.1-.05-.18-.04-.28v-.07c0-.05.02-.16.29-.17.04,0,.08,0,.13,0,.11,0,.21.02.3.02.21.03.25.05.26.07.02.02.03.03.02.05,0,.02-.02.05-.04.07-.01.02-.02.03-.03.05l-.02.05v.02s.02.02.02.02c0,.01,0,.03,0,.05,0,.02,0,.04,0,.05.02.03.05.05.09.06.01,0,.02,0,.04,0h.02s.03-.02.03-.02c.04-.01.05,0,.05.03v.02s.03.07.03.07h0s.1.08.15.05c.03-.02.05-.03.07-.03h.02s.01.03.01.03c0,.01.01.02.02.02.02-.01.03,0,.05.03l.02.04s.02.03.02.03c.02.03.05,0,.07-.03.02-.02.04-.05.07-.04.01,0,.02.02.03.03,0,0,.02.02.02.02.02.01.03,0,.05,0,0,0,.01-.02.02-.03,0-.02.01-.03.02-.04.03-.02.06-.02.09-.05.06-.09.1-.14.17-.18h.01s.02-.02.04-.03c0,0,.03,0,.05,0h.02s.03,0,.04,0c.01-.01,0-.05-.01-.08-.01-.03-.03-.06-.03-.08,0-.02.03-.02.05-.04h0s.05-.04.07-.06l.03-.04s0-.02-.02-.04c0,0-.02-.02-.02-.02-.02-.02-.04-.04-.01-.07.02-.02.02-.03.02-.05,0-.02,0-.03.06-.08.04-.03.07-.07,0-.07-.07,0-.1-.01-.11-.04h0s0-.03,0-.05c0-.03,0-.06-.02-.06-.15-.03-.22-.05-.25-.11,0-.01,0-.03,0-.06,0-.02,0-.05,0-.05-.01,0-.03,0-.05.01-.03.02-.06.04-.07,0,0-.02,0-.04,0-.07,0-.02,0-.04,0-.05,0-.04-.04-.02-.07,0-.02.01-.05.03-.06.02-.01,0-.02-.02-.03-.04,0-.01-.02-.02-.02-.03-.01,0-.02,0-.03,0-.01.02-.02.01-.04,0-.04,0-.09,0-.14.02h-.02s-.07.06-.12.08h0s-.08.03-.13.03c0,0-.02,0-.04-.02h-.02s0,.02,0,.02c0,.01,0,.03,0,.03,0,0-.03,0-.05,0h-.02s-.03,0-.04.02c-.02.03-.04.07-.05.11v.04s0,.06-.02.08c0,0-.02,0-.04.01,0,0-.02,0-.02,0-.02,0-.03,0-.03,0-.03,0-.04.03-.03.05h0s0,.05,0,.05c0,.02.01.04.01.05,0,.02-.02.04-.05.05h0s-.05.04-.18.05c-.1,0-.21.01-.32,0-.07,0-.14-.01-.19-.03Z"/>
          </g>
          <path class="cls-7" d="M182.88,44.36c.15-.5.09-.56.04-.61-.02-.02-.03-.05-.04-.08-.02-.05-.04-.09-.07-.11-.05-.03-.13.01-.2.05-.05.03-.11.06-.15.06-.02,0-.04-.01-.05-.03-.02-.02-.03-.05-.05-.09-.02-.05-.04-.14-.09-.11-.06-.02-.11-.06-.16-.1l-.05-.04c-.11-.09-.22-.18-.37-.16h-.04s-.09,0-.17.08c-.09.08-.18.15-.23.12-.02-.02-.04-.06-.06-.09l-.04-.07c-.1-.14-.24-.11-.38-.04-.14.06-.23-.06-.33-.19l-.03-.04s-.03-.02-.05-.01h-.03s-.07-.01-.11,0c-.04.02-.07.04-.11.07-.04.03-.08.06-.12.07-.03,0-.05.01-.08,0-.03-.02-.05-.06-.08-.1l-.04-.05c-.04-.05-.09-.01-.13-.07-.06-.1-.14-.07-.22-.05l-.08.02c-.07,0-.14-.01-.21-.03l-.12-.03c-.09.04-.16.08-.24.17-.06.06-.11.12-.16.15-.05.02-.09,0-.14-.04-.16-.09-.33-.12-.5-.05-.03.01-.06.02-.08-.01-.02-.02-.03-.06-.04-.1-.02-.06-.05-.12-.07-.14-.03-.03-.06-.02-.1-.01l-.15.02c-.05,0-.11.02-.16.02h-.05s-.08.02-.12-.01c-.06-.04-.14-.09-.22-.05-.03.01-.05.03-.08.05-.03.02-.06.04-.08.05-.06.01-.11-.02-.17-.06-.09-.06-.19-.13-.29.03l-.04.08c-.03.05-.05.1-.07.11-.02,0-.05-.03-.09-.09-.15-.19-.29-.14-.4-.07l-.17.11-.2.13-.15.08-.13.08s-.07.05-.11.03l-.05-.03s-.07-.04-.1-.04c-.04,0-.08.02-.11.05-.05.03-.1.07-.15.03-.03-.02-.06-.06-.09-.09-.05-.06-.11-.13-.15-.13-.03.01-.07.05-.09.1l-.03.04c-.04.06-.09.08-.15.06l-.03-.02s-.05-.03-.07-.03l-.12.03c-.1.02-.2.04-.28.17-.1.16-.24.1-.39.05-.14-.05-.28-.09-.38.04-.06.08-.15.09-.24.04-.06-.03-.11-.02-.16,0-.04.01-.07.03-.11.02-.04,0-.09-.04-.13-.07-.07-.04-.13-.08-.19-.08-.07,0-.11.09-.14.17-.01.04-.03.06-.05.08l-.04.04c-.05.06-.11.08-.21.05l-.12-.04c-.08-.03-.16-.06-.23-.05-.13,0-.22.13-.26.36-.01.09-.12.06-.2.04-.04,0-.07-.01-.09-.01-.15,0-.23.09-.32.18l-.07.07c-.06.05-.16.14.13.85.05.11.1.22.15.36.14.29.28.56.38.78.29.54.4.6.46.63.07.04.12.03.16-.01.04-.04.07-.13.1-.21l.06-.15.06-.13s.03-.02.05-.01h.05s.06-.06.09-.09c.03-.03.06-.07.09-.09.07-.04.16,0,.25.02.03,0,.05.01.09.06l.04.05.05.06c.09.1.12.04.15,0,.01-.01.03-.04.03-.04.04-.05.09-.1.14-.16v-.02c.09-.1.29-.13.42,0,.08.08.14.11.19.1.02,0,.03-.01.05-.03l.03-.05s.04-.07.06-.05c.06.04.09-.03.12-.1,0-.03.02-.07.03-.12,0-.04.02-.07.03-.1.04-.09.11-.02.19.04.07.06.15.13.2.07.02-.02.04-.07.05-.11l.03-.08s.07-.06.12-.04c.02,0,.05.03.07.06.03.03.07.06.09.07.09.02.17-.03.27,0,.26.1.48.1.68,0h.04s.08-.04.11-.08c.02-.02.03-.08.04-.13v-.06s.04-.08.07-.09c.05-.02.1.05.16.13.06.07.11.15.16.15.05,0,.09-.05.13-.11l.02-.02c.06-.07.11-.11.17-.15l.11-.08s.05.02.09.07l.05.06c.05.05.11.11.17.04.05-.05.08-.06.11-.07.05-.01.08-.02.17-.21.06-.13.11-.22.16-.03.04.18.09.26.16.27h0s.08-.03.12-.06c.06-.04.12-.08.17-.02.24.34.43.45.61.39.03-.01.07-.07.1-.13.03-.06.07-.12.09-.1.03.02.05.07.07.12.04.09.08.18.14.12.03-.03.07-.1.1-.18.02-.04.05-.09.07-.12.06-.09.11,0,.16.07.04.06.07.13.12.12.03,0,.07-.04.11-.08.03-.03.05-.05.08-.06.03-.01.05,0,.06.03.02.05.04.05.08.05.1,0,.22.02.33.11l.04.04c.09.09.19.13.33.15h.02c.11.02.22.03.35-.02.02,0,.04-.05.08-.1.01-.02.04-.01.04-.01.01,0,.02.03.03.05.01.03.03.06.05.06.03,0,.07-.03.11-.07l.03-.03s.08-.03.11,0c.08.04.15.11.22.18l.05.08c.04.07.09.15.17.11.03-.01.06-.03.09-.06.01-.01.03-.03.05-.05.03-.04.04-.03.06-.05.07-.07.1-.03.13,0l.02.02s.03.05.04.08c.02.05.04.09.08.1.04.01.1,0,.17-.06l.02-.02c.06-.04.14-.1.31-.42.13-.26.26-.55.38-.85.07-.19.13-.37.19-.53Z"/>
          <g>
            <path class="cls-7" d="M198.56,50.7c-.03.66.48,1.22,1.14,1.25.66.03,1.22-.48,1.25-1.14.03-.66-.48-1.22-1.14-1.25-.66-.03-1.22.48-1.25,1.14Z"/>
            <path class="cls-7" d="M198.26,50.66c-.18-.04-.18-.11-.19-.15,0-.01,0-.04-.01-.06,0-.03-.01-.06-.01-.09,0-.05.04-.09.08-.12.02-.02.05-.05.06-.08v-.04s.02-.04.02-.06c0-.04,0-.08.02-.1.02-.04.04-.08.06-.14l.02-.04c.04-.1.1-.19.19-.26l.02-.02s.06-.04.11-.05c.06,0,.12-.01.15-.05.02-.02.03-.04.04-.06l.02-.04c.06-.09.17-.12.27-.12.1,0,.17-.07.26-.13l.03-.02s.03,0,.04,0h.02s.06,0,.09,0c.02,0,.05.01.08.02.03.01.06.02.08.03.02,0,.04,0,.06,0,.02,0,.05-.02.07-.03h.04s.07,0,.11-.02c.06-.02.12,0,.17.03.02,0,.04.02.06.03.06.02.11.03.16.05l.09.03c.05.04.09.08.12.14.02.04.04.08.06.11.02.03.05.04.09.06.12.06.21.15.27.27.01.02.02.04.04.05h.05s.06.02.08.04c.02.02.03.04.04.07l.05.11.04.12v.04s.03.06.05.09c.03.04.06.1.06.16,0,.02,0,.04,0,.06,0,.03,0,.05-.01.07,0,.04.02.09.03.13.02.07.05.15-.01.22l-.03.03s-.04.04-.04.05c0,.02,0,.04.02.07.05.12,0,.23-.06.3l-.09.11-.11.12-.08.08-.08.07s-.05.03-.06.06l-.02.03-.04.06s-.05.03-.08.05c-.04.02-.07.03-.09.07,0,.02-.02.04-.02.06-.01.04-.03.08-.06.1-.02.01-.06.02-.09.01h-.03s-.08.01-.12.04l-.02.02s-.03.02-.04.03l-.09.03c-.07.02-.16.04-.24,0-.1-.03-.19,0-.29.02-.09.02-.2.03-.29-.02-.05-.03-.11-.05-.18-.05-.04,0-.08-.02-.11-.03-.03-.01-.05-.03-.08-.03-.03,0-.06,0-.09,0-.05,0-.09,0-.13-.03-.05-.03-.07-.08-.09-.12,0-.02-.02-.04-.03-.05l-.02-.03s-.06-.08-.12-.11l-.07-.04s-.09-.06-.13-.1c-.07-.07-.09-.18-.06-.29.01-.04-.04-.09-.07-.14-.01-.02-.03-.04-.03-.05-.05-.1-.05-.18-.04-.28v-.07c0-.05.02-.16.29-.17.04,0,.08,0,.13,0,.11,0,.21.02.3.02.21.03.25.05.26.07.02.02.03.03.02.05,0,.02-.02.05-.04.07-.01.02-.02.03-.03.05l-.02.05v.02s.02.02.02.02c0,.01,0,.03,0,.05,0,.02,0,.04,0,.05.02.03.05.05.09.06.01,0,.02,0,.04,0h.02s.03-.02.03-.02c.04-.01.05,0,.05.03v.02s.03.07.03.07h0s.1.08.15.05c.03-.02.05-.03.07-.03h.02s.01.03.01.03c0,.01.01.02.02.02.02-.01.03,0,.05.03l.02.04s.02.03.02.03c.02.03.05,0,.07-.03.02-.02.04-.05.07-.04.01,0,.02.02.03.03,0,0,.02.02.02.02.02.01.03,0,.05,0,0,0,.01-.02.02-.03,0-.02.01-.03.02-.04.03-.02.06-.02.09-.05.06-.09.1-.14.17-.18h.01s.03-.02.04-.03c0,0,.03,0,.05,0h.02s.03,0,.04,0c.02-.01,0-.05-.01-.08-.01-.03-.03-.06-.03-.08,0-.02.03-.02.05-.04h0s.05-.04.07-.06l.03-.04s0-.02-.02-.04c0,0-.02-.02-.02-.02-.02-.02-.04-.04-.01-.07.02-.02.02-.03.02-.05,0-.02,0-.03.06-.08.04-.03.07-.07,0-.07-.07,0-.1-.01-.11-.04h0s0-.03,0-.05c0-.03,0-.06-.02-.06-.15-.03-.22-.05-.25-.11,0-.01,0-.03,0-.06,0-.02,0-.05,0-.05-.01,0-.03,0-.05.01-.03.02-.06.04-.07,0,0-.02,0-.04,0-.07,0-.02,0-.04,0-.05,0-.04-.04-.02-.07,0-.02.01-.05.03-.06.02-.01,0-.02-.02-.03-.04,0-.01-.02-.02-.02-.03-.01,0-.02,0-.03,0-.01.02-.02.01-.04,0-.04,0-.09,0-.14.02h-.02s-.07.06-.12.08h0s-.08.03-.13.03c0,0-.02,0-.04-.02h-.02s0,.02,0,.02c0,.01,0,.03,0,.03,0,0-.03,0-.05,0h-.02s-.03,0-.04.02c-.02.03-.04.07-.05.11v.04s0,.06-.02.08c0,0-.02,0-.04.01,0,0-.02,0-.03,0-.02,0-.03,0-.03,0-.03,0-.04.03-.03.05h0s0,.05,0,.05c0,.02.01.04.01.05,0,.02-.02.04-.05.05h0s-.05.04-.18.05c-.1,0-.21.01-.32,0-.07,0-.14-.01-.19-.03Z"/>
          </g>
          <path class="cls-7" d="M205.74,44.53c.15-.5.09-.56.05-.61-.02-.02-.03-.05-.04-.08-.02-.05-.04-.09-.07-.11-.05-.03-.13.01-.2.05-.05.03-.11.06-.15.06-.02,0-.04-.01-.05-.03-.02-.02-.03-.05-.05-.09-.02-.05-.04-.14-.09-.11-.06-.02-.11-.06-.16-.1l-.05-.04c-.11-.09-.22-.18-.37-.16h-.04s-.09,0-.17.08c-.09.08-.18.15-.23.12-.02-.02-.04-.06-.06-.09l-.04-.07c-.1-.14-.24-.11-.38-.04-.14.06-.23-.06-.33-.19l-.03-.04s-.03-.02-.05-.01h-.03s-.07-.01-.11,0c-.04.02-.07.04-.11.07-.04.03-.08.06-.12.07-.03,0-.05.01-.08,0-.03-.02-.05-.06-.08-.1l-.04-.05c-.04-.05-.09-.01-.13-.07-.06-.1-.14-.07-.22-.05l-.08.02c-.07,0-.14-.01-.21-.03l-.12-.03c-.09.04-.16.08-.24.17-.06.06-.11.12-.16.15-.05.02-.09,0-.14-.04-.16-.09-.33-.12-.5-.05-.03.01-.06.02-.08-.01-.02-.02-.03-.06-.04-.1-.02-.06-.05-.12-.07-.14-.03-.03-.06-.02-.1-.01l-.15.02c-.06,0-.11.02-.16.02h-.05s-.08.02-.12-.01c-.06-.04-.14-.09-.22-.05-.03.01-.05.03-.08.05-.03.02-.06.04-.08.05-.06.01-.11-.02-.17-.06-.09-.06-.19-.13-.29.03l-.04.08c-.03.05-.05.1-.07.11-.02,0-.05-.03-.09-.09-.15-.19-.29-.14-.4-.07l-.17.11-.2.13-.15.08-.13.08s-.07.05-.11.03l-.05-.03s-.07-.04-.1-.04c-.04,0-.08.02-.11.05-.05.03-.1.07-.15.03-.03-.02-.06-.06-.09-.09-.05-.06-.11-.13-.15-.13-.03.01-.07.05-.09.1l-.03.04c-.04.06-.09.08-.15.06l-.03-.02s-.05-.03-.07-.03l-.12.03c-.1.02-.2.04-.29.17-.1.16-.24.1-.39.05-.14-.05-.28-.09-.38.04-.06.08-.15.09-.24.04-.06-.03-.11-.01-.16,0-.04.01-.07.03-.11.02-.04,0-.09-.04-.14-.07-.07-.04-.13-.08-.19-.08-.07,0-.11.09-.14.17-.01.04-.03.06-.05.08l-.04.04c-.05.06-.11.08-.21.05l-.12-.04c-.08-.03-.16-.06-.23-.05-.13,0-.22.13-.26.36-.01.09-.12.06-.2.04-.04,0-.07-.01-.09-.01-.15,0-.23.09-.32.18l-.07.07c-.06.05-.16.14.13.85.05.11.1.22.15.36.14.29.28.56.38.78.29.54.4.6.46.63.07.04.12.03.16-.01.04-.04.07-.13.1-.21l.06-.15.06-.13s.03-.02.05-.01h.05s.06-.06.09-.09c.03-.03.06-.07.09-.09.07-.04.16,0,.25.02.03,0,.05.01.09.06l.04.05.05.06c.09.1.12.04.15,0,.01-.01.03-.04.03-.04.04-.05.09-.1.14-.16v-.02c.09-.1.29-.13.42,0,.08.08.14.11.19.1.02,0,.03-.01.05-.03l.03-.05s.04-.07.06-.05c.06.04.09-.03.12-.1,0-.03.02-.07.03-.12,0-.04.02-.07.03-.1.04-.09.11-.02.19.04.07.06.15.13.2.07.02-.02.04-.07.05-.11l.03-.08s.07-.06.12-.04c.02,0,.05.03.07.06.03.03.07.06.09.07.09.02.17-.03.27,0,.26.1.48.1.68,0h.04s.07-.04.11-.08c.02-.02.03-.08.04-.13v-.06s.05-.08.07-.09c.05-.02.1.05.16.13.06.07.11.15.16.15.05,0,.09-.05.13-.11l.02-.02c.06-.07.11-.11.17-.15l.11-.08s.05.02.09.07l.05.06c.05.05.11.11.17.04.05-.05.08-.06.11-.07.04-.01.08-.02.17-.21.06-.13.11-.22.16-.03.04.18.09.26.16.27h0s.08-.03.12-.06c.06-.04.12-.08.17-.02.24.34.43.45.61.39.03-.01.07-.07.1-.13.03-.06.07-.12.09-.1.03.02.05.07.07.12.04.09.08.18.14.12.03-.03.07-.1.1-.18.02-.04.05-.09.07-.12.06-.09.11,0,.16.07.04.06.07.13.12.12.03,0,.07-.04.11-.08.03-.03.05-.05.08-.06.03-.01.05,0,.06.03.02.05.04.05.08.05.1,0,.22.02.33.11l.04.04c.09.09.19.13.33.15h.02c.11.02.22.03.35-.02.02,0,.04-.05.08-.1.02-.02.04-.01.04-.01.01,0,.02.03.03.05.01.03.03.06.05.06.03,0,.07-.03.11-.07l.03-.03s.08-.03.11,0c.08.04.15.11.22.18l.05.08c.04.07.09.15.17.11.03-.01.06-.03.09-.06.01-.01.03-.03.05-.05.03-.04.04-.03.06-.05.07-.07.1-.03.13,0l.02.02s.03.05.04.08c.02.05.04.09.08.1.04.01.1,0,.17-.06l.02-.02c.06-.04.14-.1.31-.42.13-.26.26-.55.38-.85.07-.19.13-.37.19-.53Z"/>
        </g>
      </g>
      <path class="cls-1" d="M16.37,323.15c11.5-62.54,62.28-42.33,277.13,46.56l-9.34,38.09S.8,407.8,16.37,323.15Z"/>
      <path class="cls-7" d="M293.5,369.7s65.42-24.23,65.42,12-74.76,26.09-74.76,26.09l9.34-38.09Z"/>
      <path class="cls-4" d="M196.27,268.7c0,4.99-4.04,9.03-9.03,9.03s-9.03-4.04-9.03-9.03,4.04-9.03,9.03-9.03,9.03,4.04,9.03,9.03Z"/>
      <path class="cls-2" d="M161.33,99.58s2.08,63.46,29.89,63.46,26.63-62.75,26.63-62.75c0,0-38.3-1.88-56.52-.71Z"/>
    </g>
  </g>
</svg>