<?xml version="1.0" encoding="UTF-8"?>
<svg id="Capa_2" data-name="Capa 2" xmlns="http://www.w3.org/2000/svg" viewBox="0 0 335.71 719.75">
  <defs>
    <style>
      .cls-1 {
        fill: #2f7ad3;
      }

      .cls-2 {
        fill: #fcda70;
      }

      .cls-3 {
        fill: #004aa2;
      }

      .cls-4 {
        fill: #ddd;
      }

      .cls-5 {
        fill: #3ff9ff;
      }

      .cls-6 {
        fill: #fff;
      }

      .cls-7 {
        fill: #f4586f;
      }

      .cls-8 {
        fill: #3e2945;
      }
    </style>
  </defs>
  <g id="P2">
    <g>
      <polygon class="cls-6" points="191.69 246.11 191.69 688.91 118.72 688.91 104.04 247.97 191.69 246.11"/>
      <polygon class="cls-1" points="191.69 688.91 220.6 719.75 118.83 719.75 118.83 688.91 191.69 688.91"/>
      <path class="cls-5" d="M326.6,124.73l-30.61,3.76,6.61-63.38c.28-2.7,2.82-4.57,5.48-4.03l19.12,3.85c2.28.46,3.86,2.55,3.68,4.87l-4.27,54.94Z"/>
      <path class="cls-3" d="M323.59,113.35l-22.78,8.06,5.2-51.73c.21-1.98,2.07-3.35,4.02-2.95l14,2.82c1.67.34,2.83,1.87,2.69,3.56l-3.13,40.24Z"/>
      <path class="cls-2" d="M104.04,82.39s62.68-15.42,98.69,67.38c34.11,78.43,106.99-43.71,106.99-43.71l19.1,17.59s-82.31,167.76-164.87,54.85c-80.5-110.08-59.91-96.12-59.91-96.12Z"/>
      <path class="cls-7" d="M40.32,398.59s3.56,18.42-11.96,22.17c-15.53,3.75-15.57-19.26-15.57-19.26l27.54-2.91Z"/>
      <path class="cls-4" d="M124.34,313.66l11.25,144.03c0,8.97-.96,17.9-2.87,26.66l-54.4,204.56H10.52l41.54-224.25-14.59-212.93,86.87,61.93Z"/>
      <path class="cls-2" d="M104.04,82.39S8.31,52.78,1.53,187.74c-6.79,134.96,11.26,213.76,11.26,213.76l32.1-3.4s-19.1-137.98,4.27-205.84c23.37-67.86,54.89-109.88,54.89-109.88Z"/>
      <path class="cls-6" d="M124.34,246.11v211.58c0,8.97-.96,17.9-2.87,26.66l-43.15,204.56H1.98l41.54-224.25-14.59-212.93,95.42-5.61Z"/>
      <path class="cls-2" d="M191.69,246.11l-20.88-122.73c-2.82-23.39-22.66-40.99-46.22-40.99h-55.28c-26.36,0-47.47,21.87-46.53,48.22l6.14,121.12,162.77-5.61Z"/>
      <g>
        <path class="cls-7" d="M94.22,1.5c-2.04.75-4,1.83-5.85,3.27-16.49,12.91-9.85,41.9,2.31,55.92,6.73,7.76,17.27,12.12,27.13,9.52,14.42-3.8,20.37-19.09,18.98-33.38-1.04-10.65-5.81-21.1-13.74-28.11-7.91-7-19.2-10.77-28.84-7.22Z"/>
        <path class="cls-7" d="M86.56,51.73c-2.89,2.34-7.58,2.93-10.97,1.33-3.39-1.59-5.94-5.21-6.46-9.15-.46-3.53.82-7.37,3.58-9.22,2.76-1.85,7.3-1.25,9.19,1.72l4.66,15.32Z"/>
        <path class="cls-7" d="M83.65,42.18l-2.3,40.76c-.57,9.19,6.12,17.24,15.26,18.35h0c10.56,1.29,19.8-7.1,19.52-17.73l-.88-37.52-31.6-3.87Z"/>
        <path class="cls-8" d="M115.85,77.49v-6.85s-14.06,2.8-25.17-9.95c0,0,5.75,13.63,25.17,16.8Z"/>
        <path class="cls-8" d="M79.01,34.13c2.81,2.03,6.84,1.94,9.98.8,4.64-1.69,5.2-4.57,6.33-8.87,1.7-6.45,8.24-10.08,14.32-11.49,3.03-.7,6.19-.95,9.28-.56,2.04.25,4.07.76,6.01,1.44,1.12.39,5.64,1.77,6.01,3.02,0,0-6.17-20.35-30.46-18.31-27.19,2.29-21.48,33.99-21.48,33.99Z"/>
        <g>
          <path class="cls-8" d="M116.72,47.11c.13-.42.24-.44.32-.46.03,0,.07-.02.1-.04.05-.03.1-.05.15-.05.08,0,.15.06.21.12.05.04.09.09.14.1.02,0,.05,0,.07,0,.03,0,.06-.03.1-.05.05-.03.11-.1.14-.06.07,0,.14-.02.2-.04l.06-.02c.13-.05.25-.11.37-.09h.03s.07.01.14.07c.08.07.16.12.2.08.02-.02.03-.05.04-.09l.02-.06c.05-.13.15-.13.26-.12.12,0,.12-.12.07-.22v-.03s0-.02,0-.02h.01s.01-.03.04-.03h.08s.07-.02.09-.04c.02-.01.03-.03.02-.04,0-.02-.03-.05-.06-.07l-.04-.04s0-.07-.04-.1c-.07-.06-.05-.12-.02-.2l.02-.08c0-.08-.01-.16-.03-.25l-.04-.16c.02-.11.04-.22.1-.34.04-.08.08-.16.09-.24.01-.07-.02-.13-.06-.21-.11-.23-.16-.48-.15-.75,0-.04,0-.09-.03-.12-.02-.02-.06-.04-.09-.06-.06-.03-.11-.06-.14-.1-.03-.04-.03-.09-.03-.14l-.02-.22-.02-.24v-.08c-.02-.06-.02-.12-.06-.18-.05-.09-.11-.19-.1-.31,0-.04.01-.08.02-.12.01-.04.02-.09.02-.13,0-.08-.05-.16-.1-.24-.08-.13-.16-.26-.06-.42l.05-.08s.07-.09.07-.13c-.01-.03-.04-.06-.1-.12-.2-.18-.2-.38-.18-.57l.03-.27.04-.33v-.24s.02-.22.02-.22c0-.06.01-.12-.02-.18l-.04-.06s-.05-.09-.07-.13c-.02-.06-.01-.12,0-.18,0-.08.02-.16-.04-.23-.03-.03-.07-.06-.11-.09-.07-.05-.14-.1-.16-.17,0-.05.01-.11.04-.17l.02-.05c.03-.09.03-.17-.02-.24l-.03-.03s-.04-.06-.05-.09l-.03-.19c-.03-.15-.06-.31,0-.48.08-.21-.03-.39-.13-.58-.1-.17-.2-.35-.16-.56.03-.13,0-.25-.08-.36-.05-.07-.06-.14-.07-.22,0-.05-.02-.11-.04-.16-.03-.05-.07-.1-.12-.15-.06-.07-.13-.13-.15-.21-.03-.1,0-.2.05-.28.02-.04.02-.08.03-.12v-.07c.03-.1,0-.2-.06-.31l-.09-.13c-.06-.09-.12-.17-.16-.26-.06-.17-.03-.37.11-.57.05-.08-.02-.2-.08-.29-.03-.04-.05-.08-.06-.11-.08-.2-.07-.35-.06-.54v-.15c0-.11,0-.31.63-.48.09-.02.2-.05.32-.08.26-.05.52-.09.72-.1.51-.03.63.1.68.16.07.07.1.16.1.27,0,.11-.03.22-.07.33l-.06.21-.05.2s0,.06.02.08l.02.07c0,.07,0,.14,0,.21,0,.07-.01.14,0,.21.02.14.09.26.16.38.02.04.04.07.09.1l.06.03.07.04c.11.07.1.16.08.25v.08c-.02.11-.03.22-.04.34v.03c-.03.19.07.54.22.67.1.08.15.17.17.27,0,.03,0,.06,0,.1l-.02.08c-.01.05-.03.1,0,.14.05.07.03.17,0,.26-.02.04-.04.08-.07.12-.02.03-.05.07-.06.1-.04.11.04.19.12.29.08.09.16.18.15.3,0,.05-.03.1-.06.15l-.04.09c-.02.07-.02.14.03.22.02.03.05.06.08.09.04.04.08.08.1.13.06.15.06.31.12.46.19.41.29.79.3,1.17v.07c0,.07.01.14,0,.21-.01.04-.05.08-.09.11l-.04.04s-.05.08-.05.12c0,.09.08.16.17.24.08.07.16.15.18.24.02.08-.01.16-.04.25v.04c-.05.12-.06.23-.07.34,0,.07-.02.13-.03.21,0,.05.04.09.09.13l.07.07c.06.07.12.17.09.28-.03.09-.02.15-.02.2,0,.08,0,.15-.12.33-.09.13-.15.22.02.28.16.05.25.13.27.25h0c.01.07,0,.14-.01.22-.02.11-.04.21.03.29.35.39.51.73.5,1.07,0,.06-.04.12-.09.18-.04.06-.09.12-.07.16.02.05.07.09.12.13.09.07.17.14.14.25-.02.06-.07.12-.13.19-.03.04-.07.08-.09.12-.06.11.01.21.09.33.06.09.12.19.11.31,0,.07-.04.16-.07.23-.03.06-.05.11-.06.16-.02.06-.01.11,0,.16.04.08.03.14,0,.22-.05.25-.14.6-.27.96l-.05.14c-.11.3-.3.58-.6.82l-.05.04c-.24.19-.5.34-.78.41-.04.01-.09,0-.15-.04-.03,0-.06,0-.08.02-.03.02-.06.04-.08.07-.04.04-.08.08-.13.09-.07.02-.15.01-.23,0l-.07-.02c-.08-.02-.16,0-.25.03-.18.06-.36.12-.57.18-.05.02-.1.04-.15.06-.14.06-.28.11-.42.06-.05-.02-.1-.04-.14-.07-.02-.01-.04-.03-.06-.06-.03-.04-.06-.04-.07-.06-.07-.08-.16-.06-.25-.05h-.05s-.09.03-.14.04c-.07.02-.15.05-.22.04-.09-.01-.17-.05-.24-.13l-.03-.02c-.07-.06-.16-.14-.18-.45-.01-.24,0-.51.04-.78.02-.17.06-.33.1-.47Z"/>
          <path class="cls-8" d="M114.17,51.37c.37-.24.41-.23.44-.23.01,0,.04,0,.06-.01.03,0,.07-.02.08,0,.02.01,0,.06-.04.11-.02.04-.04.07-.04.09h.02s.04,0,.06,0c.04,0,.1-.04.08,0,.02.01.05.02.08.03h.03c.07.01.13.02.13.09v.02s0,.04-.03.11c-.04.08-.07.15-.05.16.01,0,.04-.01.07-.02l.05-.02c.1-.04.1.04.08.14-.02.1.08.06.17.02h.03s.02,0,.02,0h0s.02.03.02.06c0,.02,0,.05-.02.08,0,.03-.01.07-.01.09,0,.02,0,.03.02.03.02,0,.04-.02.07-.03l.04-.02s.03.02.07,0c.07-.04.07,0,.08.04,0,.01.01.04.01.04.02.03.04.04.07.05l.05.02c0,.05,0,.1,0,.18-.01.06-.02.12-.02.15,0,.03.03.02.06.01.09-.02.16.02.2.1,0,.01.01.03.03,0,.01-.01.03-.04.05-.06.03-.04.06-.08.08-.09.02-.01.03,0,.04.01l.04.05s.03.04.05.05h.02s.03.04.05.02c.04-.02.08-.05.1,0,0,.01,0,.03.01.05,0,.02,0,.04.02.05.02.02.05,0,.09-.02.05-.03.11-.07.11.06v.07s0,.09,0,.09c0,0,.03-.02.06-.06.11-.14.15-.08.18-.02l.05.1.06.11.05.07.05.07s.03.04.05.03l.03-.02s.04-.03.05-.03c.02,0,.03.02.05.04.02.03.04.05.07.02.01-.02.03-.05.05-.08.03-.06.06-.11.08-.11.01,0,.02.04.03.08v.03c.02.05.05.06.07.04v-.02s.05-.03.05-.03h.05s.09.02.13.12c.05.12.11.06.17,0,.06-.06.11-.13.17-.05.03.05.07.04.11-.01.02-.04.04-.03.06-.03.02,0,.03,0,.05-.02.01-.02.03-.06.04-.09.02-.05.04-.1.06-.11.03-.01.06.04.08.09.01.03.02.04.03.05l.02.02s.06.03.09-.02l.03-.07s.04-.1.06-.12c.04-.04.1.03.18.19.03.06.06,0,.08-.04,0-.02.02-.04.02-.05.05-.06.09-.03.15,0l.05.02s.09.03.28.65c.03.09.06.2.09.32.06.26.13.51.18.71.11.5.06.6.04.65-.02.06-.06.08-.11.07-.05,0-.1-.05-.16-.1l-.1-.07-.09-.07s-.02,0-.03,0c0,0-.03.01-.03.01-.03,0-.06-.02-.09-.03-.03-.01-.06-.03-.09-.03-.06,0-.11.06-.16.11-.01.02-.03.03-.04.08v.05s-.03.07-.03.07c-.03.1-.07.07-.11.04-.01,0-.03-.02-.03-.02-.05-.02-.1-.05-.14-.08h-.01c-.08-.06-.23-.02-.29.1-.04.08-.08.12-.13.12-.01,0-.03,0-.04-.02l-.03-.03s-.04-.05-.06-.03c-.04.04-.07,0-.11-.06,0-.02-.02-.06-.04-.09-.01-.03-.02-.06-.03-.08-.04-.06-.08,0-.13.06-.05.06-.1.12-.14.08-.02-.02-.03-.05-.05-.09l-.03-.06s-.05-.05-.09-.02c-.02,0-.03.03-.05.05-.02.03-.05.06-.07.07-.07.02-.13-.02-.2,0-.2.08-.38.09-.52-.01h-.03s-.05-.04-.07-.08c-.01-.02-.01-.07-.01-.12v-.05s-.01-.07-.03-.08c-.03-.02-.08.03-.14.09-.05.05-.11.1-.15.1-.03,0-.05-.06-.07-.11v-.02c-.03-.07-.06-.11-.1-.16-.02-.03-.03-.05-.06-.09-.01-.02-.04,0-.08.04l-.05.04s-.1.06-.13,0c-.02-.05-.04-.07-.05-.08-.03-.02-.05-.04-.05-.21,0-.12,0-.2-.09-.07-.09.12-.15.18-.2.16h0s-.04-.05-.06-.09c-.02-.05-.04-.1-.1-.07-.29.17-.47.17-.56.04-.01-.02,0-.08,0-.14,0-.06.02-.11,0-.11-.02,0-.06.02-.1.05-.07.04-.14.09-.15.02,0-.03.01-.1.03-.17,0-.04.02-.08.03-.11.01-.09-.05-.06-.12-.03-.05.02-.11.04-.14.01-.02-.02-.01-.06-.01-.1,0-.03,0-.06,0-.08,0-.02-.02-.03-.05-.01-.04.02-.06.01-.07,0-.05-.05-.12-.12-.22-.13h-.04c-.1,0-.18-.04-.25-.12h-.01c-.05-.08-.11-.15-.12-.25,0-.02.02-.05.04-.09,0-.02,0-.03,0-.03,0,0-.03,0-.05,0-.03,0-.05,0-.06,0-.02-.01,0-.06,0-.1v-.04s0-.06-.02-.08c-.05-.04-.12-.06-.2-.08-.02,0-.05,0-.07,0-.07,0-.14,0-.14-.08,0-.02,0-.05.02-.08,0-.01.02-.03.03-.05.02-.03.02-.04.03-.06.04-.07,0-.08-.03-.09h-.02s-.04-.01-.07-.02c-.04,0-.08,0-.1-.03-.02-.03-.01-.08.02-.14v-.02c.03-.05.06-.13.29-.32.19-.15.4-.32.62-.47.14-.1.28-.19.39-.27Z"/>
          <g>
            <path class="cls-8" d="M107.78,38.09c.06.57.57.98,1.14.92.57-.06.98-.57.92-1.14-.06-.57-.57-.98-1.14-.92-.57.06-.98.57-.92,1.14Z"/>
            <path class="cls-8" d="M107.52,38.1c-.16-.02-.17-.07-.18-.11,0-.01-.01-.03-.02-.05-.01-.02-.02-.05-.02-.07,0-.04.02-.08.05-.11.02-.02.03-.05.04-.07v-.04s0-.03,0-.05c0-.03-.02-.07,0-.09,0-.04.02-.08.03-.13v-.04c.03-.09.07-.18.14-.25l.02-.02s.04-.04.09-.06c.05-.01.1-.03.13-.06.01-.01.02-.03.03-.05l.02-.04c.04-.08.13-.12.22-.14.08-.02.14-.08.21-.14l.02-.02s.02-.01.04-.01h.02s.05-.02.08-.02c.02,0,.04,0,.07,0,.03,0,.06.01.07.01.02,0,.03,0,.05,0,.02,0,.04-.02.06-.03l.03-.02s.06,0,.09-.02c.05-.03.1-.01.15,0,.02,0,.04.01.05.02.06,0,.09.02.15.03l.08.02s.09.06.12.1c.02.03.04.06.07.08.02.02.05.02.09.04.11.03.2.1.27.19.01.01.02.03.04.04h.04s.05,0,.07.02c.02.01.03.03.04.05l.05.09.05.1.02.03s.02.05.04.07c.03.03.06.08.07.13,0,.01,0,.03,0,.06,0,.02,0,.05,0,.06,0,.04.03.07.04.11.03.06.06.12.02.19l-.02.03s-.03.04-.03.05c0,.01,0,.03.02.06.06.1.03.2-.01.27l-.06.11-.08.12-.06.08-.06.07s-.04.04-.05.06v.03s-.04.06-.04.06c-.01.02-.04.04-.06.05-.03.02-.06.04-.07.07,0,.02,0,.04-.01.05,0,.03-.01.07-.04.09-.02.01-.05.02-.07.02h-.02s-.07.02-.09.05v.02s-.03.02-.04.03l-.08.03c-.06.03-.13.05-.2.04-.09-.02-.16.02-.25.06-.08.03-.17.05-.25.02-.05-.02-.1-.03-.16-.02-.03,0-.07,0-.1-.01-.02,0-.05-.02-.07-.02-.02,0-.05,0-.08,0-.04,0-.08,0-.11,0-.04-.02-.07-.06-.09-.09,0-.02-.02-.03-.03-.04l-.02-.02s-.06-.06-.12-.08l-.06-.03s-.09-.04-.12-.07c-.07-.05-.1-.14-.09-.24,0-.04-.04-.08-.07-.11-.02-.02-.03-.03-.04-.04-.05-.08-.07-.15-.07-.23v-.06s0-.14.22-.18c.03,0,.07-.01.11-.02.1,0,.19-.01.26-.02.18,0,.22.01.23.02.02.01.03.02.03.04,0,.02-.01.04-.02.07,0,.02-.01.03-.01.05v.05s0,.01,0,.01h.01s0,.04.01.05c0,.02,0,.03.01.04.02.02.05.03.08.04,0,0,.02,0,.03,0h.02s.02-.02.02-.02c.04-.02.04,0,.04.02v.02s.04.06.04.06h0s.09.06.13.02c.02-.02.04-.03.06-.03h.02s.01.02.01.02c0,.01.02.02.02.01.02-.01.03,0,.05.02l.02.03s.02.03.02.03c.02.02.04,0,.06-.03.02-.02.03-.05.05-.04,0,0,.02.01.03.02,0,0,.02.01.02.01.02,0,.03,0,.04-.01,0,0,0-.02,0-.03,0-.01,0-.03.01-.03.02-.02.05-.03.07-.06.04-.08.07-.13.12-.18h0s.02-.03.03-.03c0,0,.03,0,.04,0h.02s.03,0,.03,0c.01-.01,0-.04-.02-.06-.01-.02-.04-.05-.03-.06,0-.01.02-.02.04-.04h0s.04-.04.05-.06l.02-.04s0-.02-.02-.03c0,0-.02-.01-.02-.01-.02-.02-.04-.03-.02-.05.01-.02.01-.03.01-.04,0-.02,0-.03.04-.08.03-.03.05-.07-.01-.06-.06,0-.09,0-.1-.02h0s0-.03,0-.05c0-.03,0-.05-.03-.05-.13-.01-.19-.01-.23-.06,0,0,0-.03,0-.05,0-.02,0-.04-.01-.04-.01,0-.02,0-.04.02-.02.02-.05.04-.06.01,0-.01,0-.04-.01-.06,0-.02,0-.03,0-.04-.01-.03-.04-.02-.06,0-.02.01-.04.03-.05.02-.01,0-.02-.02-.03-.03,0,0-.02-.02-.02-.02,0,0-.02,0-.02,0,0,.02-.02.01-.03.01-.03,0-.08,0-.12.04h-.01s-.06.07-.1.08h0s-.07.04-.11.04c0,0-.02,0-.04-.01h-.01s0,.02,0,.02c0,.01,0,.03,0,.03,0,0-.02,0-.04,0h-.02s-.03.01-.03.02c-.02.03-.02.07-.02.1v.03s.02.05,0,.07c0,0-.02,0-.03.02,0,0-.01,0-.02,0-.01,0-.02,0-.02,0-.03,0-.03.03-.02.05h0s.01.04.01.04c0,.02.02.03.02.04,0,.02-.01.03-.04.05h0s-.04.04-.15.07c-.08.02-.18.04-.27.05-.06,0-.12,0-.17,0Z"/>
          </g>
          <path class="cls-8" d="M113.24,31.87c.06-.45,0-.49-.04-.53-.02-.01-.03-.04-.05-.07-.02-.04-.05-.07-.07-.09-.05-.02-.11.03-.17.07-.04.03-.08.07-.12.07-.02,0-.03,0-.05-.02-.02-.02-.04-.04-.05-.07-.03-.04-.06-.11-.09-.09-.05-.01-.1-.04-.15-.07l-.05-.03c-.1-.06-.21-.12-.34-.09h-.03s-.08.02-.14.09c-.07.08-.13.15-.18.14-.02-.01-.04-.04-.06-.07l-.04-.05c-.1-.11-.22-.06-.33.01-.11.07-.2-.02-.31-.12l-.03-.03s-.03,0-.05,0h-.02s-.06,0-.1.02c-.03.02-.06.05-.09.07-.03.03-.06.06-.09.08-.02.01-.04.02-.07,0-.03-.01-.05-.05-.08-.08l-.04-.04s-.08,0-.12-.05c-.06-.08-.13-.05-.19-.02l-.07.03c-.06.01-.12,0-.19,0h-.11c-.07.04-.13.08-.18.17-.04.06-.08.12-.12.15-.04.03-.07,0-.13-.01-.15-.06-.29-.06-.44.02-.02.01-.05.02-.07,0-.02-.02-.03-.05-.05-.08-.03-.05-.06-.1-.08-.11-.03-.02-.06-.01-.09,0l-.13.04s-.09.03-.14.03h-.04s-.07.03-.11.01c-.06-.03-.13-.06-.19-.02-.02.01-.04.03-.06.06-.02.02-.04.05-.07.06-.05.02-.1,0-.15-.03-.09-.04-.18-.09-.24.06l-.03.07s-.03.1-.05.1c-.02,0-.04-.02-.09-.06-.15-.14-.26-.08-.35,0l-.13.11-.15.14-.12.09-.11.08s-.06.05-.09.04l-.05-.02s-.06-.02-.09-.02c-.03,0-.06.03-.09.06-.04.04-.07.07-.12.04-.03-.01-.06-.04-.09-.07-.05-.05-.11-.1-.15-.09-.03.02-.05.05-.07.1l-.02.04c-.03.06-.07.08-.12.07h-.03s-.04-.03-.06-.03l-.1.05c-.08.03-.17.06-.22.18-.06.15-.19.12-.33.09-.12-.02-.25-.04-.33.08-.04.07-.11.1-.2.07-.06-.02-.1,0-.13.02-.03.01-.06.03-.09.03-.04,0-.08-.02-.12-.04-.06-.03-.12-.05-.17-.04-.06.02-.08.09-.1.16,0,.03-.02.05-.04.07l-.03.04c-.03.06-.09.08-.17.07l-.1-.02c-.07-.01-.14-.03-.2-.02-.11.02-.17.14-.17.34,0,.08-.1.07-.16.06-.03,0-.06,0-.08,0-.13.03-.18.1-.25.2l-.05.07s-.12.14.22.72c.05.09.11.18.18.29.16.23.31.45.43.62.32.42.42.47.48.48.06.02.11.01.14-.03.03-.04.04-.12.06-.19l.03-.13.04-.12s.02-.02.04-.02h.04s.05-.06.07-.09c.02-.03.04-.07.07-.09.06-.04.14-.03.22-.01.02,0,.05,0,.08.04l.04.04.05.05c.09.07.11.02.13-.02,0-.01.02-.04.02-.04.03-.05.06-.1.1-.15h0c.06-.11.22-.16.34-.07.08.06.14.08.18.06.01,0,.03-.02.04-.03l.02-.04s.02-.06.05-.05c.05.02.07-.04.09-.1,0-.03,0-.07.01-.11,0-.03,0-.07,0-.09.02-.08.09-.03.16.01.07.04.14.09.18.03.01-.02.02-.06.03-.1l.02-.07s.05-.06.1-.05c.02,0,.04.02.07.04.03.02.06.05.09.05.08,0,.15-.05.23-.03.24.05.42.02.58-.08l.03-.02s.06-.03.09-.07c.01-.02.01-.08.01-.12v-.05s.02-.07.04-.08c.04-.02.1.03.16.09.06.05.11.11.16.11.04,0,.07-.06.09-.11v-.02c.05-.07.09-.11.14-.15l.08-.09s.05.01.08.05l.05.05s.1.08.15.02c.03-.05.06-.06.08-.07.04-.02.07-.03.12-.2.04-.12.07-.21.13-.05.06.15.11.21.17.21h0s.06-.03.1-.06c.05-.04.09-.09.14-.03.25.26.42.34.58.26.03-.01.05-.07.07-.13.02-.06.04-.11.07-.1.02,0,.05.05.07.09.04.07.09.15.13.09.02-.03.05-.1.07-.16.02-.04.03-.08.04-.11.04-.08.09-.02.14.04.04.05.08.1.12.09.03,0,.06-.04.08-.08.02-.03.04-.05.06-.06.02-.02.04,0,.06.02.02.04.04.04.07.03.08,0,.19,0,.3.05l.04.03c.09.07.18.09.3.08h.02c.09,0,.19,0,.29-.06.02,0,.03-.05.05-.1.01-.02.03-.01.03-.01.01,0,.02.02.03.04.02.02.03.04.05.05.02,0,.06-.03.09-.07l.03-.03s.06-.03.09-.02c.07.03.14.07.21.13l.05.06c.05.06.09.12.16.08.02-.01.05-.04.07-.06,0-.01.02-.03.03-.05.02-.03.03-.03.04-.05.05-.07.08-.04.12,0l.02.02s.03.04.05.06c.03.04.05.07.08.08.04,0,.09-.02.14-.08l.02-.02s.11-.1.21-.4c.08-.24.16-.51.22-.78.03-.17.06-.34.09-.48Z"/>
          <g>
            <path class="cls-8" d="M127.5,35.31c.06.57.57.98,1.14.92.57-.06.98-.57.92-1.14s-.57-.98-1.14-.92c-.57.06-.98.57-.92,1.14Z"/>
            <path class="cls-8" d="M127.24,35.32c-.16-.02-.17-.07-.18-.11,0-.01-.01-.03-.02-.05-.01-.02-.02-.05-.02-.07,0-.04.02-.08.05-.11.02-.02.03-.05.04-.07v-.04s0-.03,0-.05c0-.03-.02-.07,0-.09,0-.04.02-.08.03-.13v-.04c.03-.09.07-.18.14-.25l.02-.02s.04-.04.09-.06c.05-.01.1-.03.13-.06.01-.01.02-.03.03-.05l.02-.04c.04-.08.13-.12.22-.14.08-.02.14-.08.21-.14l.02-.02s.02-.01.04-.01h.02s.05-.02.08-.02c.02,0,.04,0,.07,0,.03,0,.06.01.07.01.02,0,.03,0,.05,0,.02,0,.04-.02.06-.03l.03-.02s.06,0,.09-.02c.05-.03.1-.01.15,0,.02,0,.04.01.05.02.06,0,.09.02.15.03l.08.02s.09.06.12.1c.02.03.04.06.07.08.02.02.05.02.09.04.11.03.2.1.27.19.01.01.02.03.04.04h.04s.05,0,.07.02c.02.01.03.03.04.05l.05.09.05.1.02.03s.02.05.04.07c.03.03.06.08.07.13,0,.01,0,.03,0,.06,0,.02,0,.05,0,.06,0,.04.03.07.04.11.03.06.06.12.02.19l-.02.03s-.03.04-.03.05c0,.01,0,.03.02.06.06.1.03.2-.01.27l-.06.11-.08.12-.06.08-.06.07s-.04.03-.05.06v.03s-.04.06-.04.06c-.01.02-.04.04-.06.05-.03.02-.06.04-.07.07,0,.02,0,.03-.01.05,0,.03-.01.07-.04.09-.02.01-.05.02-.07.02h-.02s-.07.02-.09.05h-.01s-.02.04-.03.04l-.08.03c-.06.03-.13.05-.2.04-.09-.02-.16.02-.25.06-.08.03-.17.05-.25.02-.05-.02-.1-.03-.16-.02-.03,0-.07,0-.1-.01-.02,0-.05-.02-.07-.02-.02,0-.05,0-.08,0-.04,0-.08,0-.11,0-.04-.02-.07-.06-.09-.09,0-.02-.02-.03-.03-.04l-.02-.02s-.06-.06-.12-.08l-.06-.03s-.09-.04-.12-.07c-.07-.05-.1-.14-.09-.24,0-.04-.04-.08-.07-.11-.02-.02-.03-.03-.04-.04-.05-.08-.07-.15-.07-.23v-.06s0-.14.22-.18c.03,0,.07-.01.11-.02.1,0,.19-.01.26-.02.18,0,.22.01.23.02.02.01.03.02.03.04,0,.02-.01.04-.02.07,0,.02-.01.03-.01.05v.05s0,.01,0,.01h.01s0,.04.01.05c0,.02,0,.03.01.04.02.02.05.03.08.04,0,0,.02,0,.03,0h.02s.02-.02.02-.02c.04-.02.04,0,.04.02v.02s.04.06.04.06h0s.09.06.13.02c.02-.02.04-.03.06-.03h.02s.01.02.01.02c0,.01.02.02.02.01.02-.01.03,0,.05.02l.02.03s.02.03.02.03c.02.02.04,0,.06-.03.02-.02.03-.05.05-.04,0,0,.02.01.03.02,0,0,.02.01.02.01.02,0,.03,0,.04-.01,0,0,0-.02,0-.03,0-.01,0-.03.01-.03.02-.02.05-.03.07-.06.04-.08.07-.13.12-.18h0s.02-.03.03-.03c0,0,.03,0,.04,0h.02s.03,0,.03,0c.01-.01,0-.04-.02-.06-.01-.02-.04-.05-.03-.06,0-.01.02-.02.04-.04h0s.04-.04.05-.06l.02-.04s0-.02-.02-.03c0,0-.02-.01-.02-.01-.02-.02-.04-.03-.02-.05.01-.02.01-.03.01-.04,0-.02,0-.03.04-.08.03-.03.05-.07-.01-.06-.06,0-.09,0-.1-.02h0s0-.03,0-.05c0-.03,0-.05-.03-.05-.13,0-.19-.01-.23-.06,0,0,0-.03,0-.05,0-.02,0-.04-.01-.04-.01,0-.02,0-.04.02-.02.02-.05.04-.06.01,0-.01,0-.04-.01-.06,0-.01,0-.03,0-.04-.01-.03-.04-.02-.06,0-.02.01-.04.03-.05.03-.01,0-.02-.02-.03-.03,0,0-.02-.02-.02-.02,0,0-.02,0-.02,0,0,.02-.02.01-.03.01-.03,0-.08,0-.12.04h-.01s-.06.07-.1.08h0s-.07.04-.11.04c0,0-.02,0-.04-.01h-.01s0,.02,0,.02c0,.01,0,.03,0,.03,0,0-.02,0-.04,0h-.02s-.03.01-.03.02c-.02.03-.02.07-.02.1v.03s.02.05,0,.07c0,0-.02,0-.03.02,0,0-.01,0-.02,0-.01,0-.02,0-.02,0-.03,0-.03.03-.02.05h0s.01.04.01.04c0,.02.02.03.02.04,0,.02-.01.03-.04.05h0s-.04.04-.15.07c-.08.02-.18.04-.27.05-.06,0-.12,0-.17,0Z"/>
          </g>
          <path class="cls-8" d="M132.87,29.1c.06-.45,0-.49-.04-.53-.02-.02-.03-.04-.05-.07-.02-.04-.05-.07-.07-.09-.05-.02-.11.03-.17.07-.04.03-.08.07-.12.07-.02,0-.03,0-.05-.02-.02-.02-.04-.04-.05-.07-.03-.04-.06-.11-.09-.09-.05-.01-.1-.04-.15-.07l-.05-.03c-.1-.06-.21-.12-.34-.09h-.03s-.08.02-.14.09c-.07.08-.13.15-.18.14-.02-.01-.04-.04-.06-.07l-.04-.05c-.1-.11-.22-.06-.33.01-.11.07-.2-.02-.31-.12l-.03-.03s-.03,0-.05,0h-.02s-.06,0-.1.02c-.03.02-.06.04-.09.07-.03.03-.06.06-.09.08-.02.01-.04.02-.07,0-.03-.01-.05-.05-.08-.08l-.04-.04s-.08,0-.12-.05c-.06-.08-.13-.05-.19-.02l-.07.03c-.06.01-.12,0-.19,0h-.11c-.07.04-.13.08-.18.17-.04.06-.08.12-.12.15-.04.03-.07,0-.13-.01-.15-.06-.29-.06-.44.02-.02.01-.05.02-.07,0-.02-.02-.03-.05-.05-.08-.03-.05-.06-.1-.08-.11-.03-.02-.06,0-.09,0l-.13.04s-.09.03-.14.04h-.04s-.07.03-.11.01c-.06-.03-.13-.06-.19-.02-.02.01-.04.03-.06.06-.02.02-.04.05-.07.06-.05.02-.1,0-.16-.03-.09-.04-.18-.09-.24.06l-.03.08s-.03.09-.05.1c-.02,0-.05-.02-.09-.06-.15-.14-.26-.08-.35,0l-.13.11-.15.14-.12.09-.11.08s-.06.05-.09.04l-.05-.02s-.06-.02-.09-.02c-.03,0-.06.03-.09.06-.04.04-.07.07-.12.04-.03-.01-.06-.04-.09-.07-.05-.05-.11-.1-.15-.09-.03.02-.05.05-.07.1l-.02.04c-.03.06-.07.08-.12.07h-.03s-.04-.03-.06-.03l-.1.05c-.08.03-.17.06-.22.18-.06.15-.19.12-.33.09-.12-.02-.25-.04-.33.08-.04.07-.11.1-.2.07-.06-.02-.1,0-.14.02-.03.01-.06.03-.09.03-.04,0-.08-.02-.12-.04-.06-.03-.12-.05-.17-.04-.06.02-.08.09-.1.16,0,.03-.02.05-.04.07l-.03.04c-.03.06-.09.08-.17.07l-.1-.02c-.07-.01-.14-.03-.2-.02-.11.02-.17.14-.17.34,0,.08-.1.07-.16.06-.03,0-.06,0-.08,0-.13.03-.18.1-.25.2l-.05.07s-.12.14.22.72c.05.09.11.18.18.29.16.23.31.45.43.62.32.42.42.47.48.48.06.02.11.01.14-.03.03-.04.04-.12.06-.19l.03-.13.04-.12s.02-.02.04-.02h.04s.05-.06.07-.09c.02-.03.04-.07.07-.09.06-.04.14-.03.22-.01.02,0,.05,0,.08.04l.04.04.05.05c.09.07.11.02.13-.02,0-.01.02-.04.02-.04.03-.05.06-.1.1-.15h0c.06-.11.22-.16.35-.07.08.06.14.08.18.06.01,0,.03-.02.04-.03l.02-.04s.02-.06.05-.05c.05.02.07-.04.09-.1,0-.03,0-.07.01-.11,0-.03,0-.07,0-.09.02-.08.09-.03.16.01.07.04.14.09.18.03.01-.02.02-.06.03-.1l.02-.07s.05-.06.1-.05c.02,0,.04.02.07.04.03.02.06.05.09.05.08,0,.15-.05.23-.03.24.05.42.02.58-.08l.03-.02s.06-.03.08-.07c.01-.02.01-.08.01-.12v-.05s.02-.07.04-.08c.04-.02.1.03.16.09.06.05.11.11.16.11.04,0,.07-.06.09-.11v-.02c.05-.07.09-.11.14-.15l.08-.09s.05.01.08.05l.05.05s.1.08.15.02c.03-.05.06-.06.08-.07.04-.02.07-.03.12-.2.04-.12.07-.21.13-.05.06.15.11.21.17.21h0s.06-.03.1-.06c.05-.04.09-.09.14-.03.25.26.42.34.58.26.03-.01.05-.07.07-.13.02-.06.04-.11.07-.1.02,0,.05.05.07.09.04.07.09.15.13.09.02-.03.05-.1.07-.16.02-.04.03-.08.04-.11.04-.08.09-.02.14.04.04.05.08.1.12.09.03,0,.06-.04.08-.08.02-.03.04-.05.06-.06.02-.02.04,0,.06.02.02.04.04.04.07.03.08,0,.19,0,.3.05l.04.03c.09.07.18.09.3.08h.02c.09,0,.19,0,.29-.06.02,0,.03-.05.05-.1.01-.02.03-.01.03-.01.01,0,.02.02.03.04.02.02.03.04.05.05.02,0,.06-.03.09-.07l.03-.03s.06-.03.09-.02c.07.03.14.07.21.13l.05.06c.05.06.09.12.16.08.02-.01.05-.04.07-.06,0-.01.02-.03.04-.05.02-.04.03-.03.04-.05.05-.07.08-.04.12,0l.02.02s.03.04.05.06c.03.04.05.07.08.08.04,0,.09-.02.14-.08l.02-.02s.11-.1.21-.4c.08-.24.16-.51.22-.78.03-.17.06-.34.09-.48Z"/>
        </g>
      </g>
      <polygon class="cls-1" points="78.31 688.91 107.22 719.75 1.98 719.75 1.98 688.91 78.31 688.91"/>
      <path class="cls-7" d="M306.1,111.81s9.04-19.72,23.4-12.73c14.36,7-.68,24.58-.68,24.58l-22.72-11.85Z"/>
    </g>
  </g>
</svg>