<?xml version="1.0" encoding="UTF-8"?>
<svg id="Capa_2" data-name="Capa 2" xmlns="http://www.w3.org/2000/svg" viewBox="0 0 383.29 383.28">
  <defs>
    <style>
      .cls-1 {
        fill: #fea920;
      }

      .cls-2 {
        fill: #fff;
      }

      .cls-3 {
        fill: #465b64;
      }

      .cls-4 {
        fill: #282d37;
      }
    </style>
  </defs>
  <g id="Capa_1-2" data-name="Capa 1">
    <g>
      <g>
        <path class="cls-3" d="M166.17.21c42.24,3.7,81.78,35.62,95.83,75.17,9.9,27.86,6.01,56.66,6.72,85.67-13.95-.16-27.96.04-41.92,0-1.37-26.74,4.71-54.39-8.11-79.05-23.52-45.26-85.83-51.47-118.78-12.98-23.37,27.3-15.63,58.89-16.83,92.03-13.96.04-27.96-.16-41.92,0,.83-23.82-2.2-48.29,2.76-71.68C52.89,47.03,87.56,12.68,129.61,2.94l13.36-2.74c7.52.48,15.79-.65,23.2,0Z"/>
        <path class="cls-1" d="M41.16,161.06c13.95-.16,27.96.04,41.92,0,47.89-.13,95.83-.13,143.72,0,13.96.04,27.96-.16,41.92,0,19.18.22,35.95-2.07,41.09,21.4l.11,177.25c-1.01,12.83-10.73,22.46-23.58,23.57H24.29c-12.7-.91-21.76-9.07-24.21-21.43l-.08-178.71c4.7-24.04,21.7-21.85,41.16-22.08Z"/>
      </g>
      <g>
        <rect class="cls-4" x="108.1" y="236.79" width="275.19" height="75.11" rx="12" ry="12"/>
        <polygon class="cls-4" points="139.48 311.91 156.54 331.07 172.48 309.49 139.48 311.91"/>
      </g>
      <g>
        <circle class="cls-2" cx="151.91" cy="273.17" r="12.51"/>
        <circle class="cls-2" cx="198.95" cy="273.17" r="12.51"/>
        <circle class="cls-2" cx="245.96" cy="273.17" r="12.51"/>
        <circle class="cls-2" cx="292.42" cy="273.17" r="12.51"/>
        <circle class="cls-2" cx="339.48" cy="273.17" r="12.51"/>
      </g>
    </g>
  </g>
</svg>