<svg id="Grupo_2" data-name="Grupo 2" xmlns="http://www.w3.org/2000/svg" xmlns:xlink="http://www.w3.org/1999/xlink" width="22.442" height="14.802" viewBox="0 0 22.442 14.802">
  <defs>
    <clipPath id="clip-path">
      <rect id="Rectángulo_2" data-name="Rectángulo 2" width="22.442" height="14.802" fill="none"/>
    </clipPath>
  </defs>
  <g id="Grupo_1" data-name="Grupo 1" clip-path="url(#clip-path)">
    <path id="Trazado_1" data-name="Trazado 1" d="M7.1,123.337c5.113.006,10.227,0,15.34,0v6a1.8,1.8,0,0,1-1.6,1.358c-6.52-.042-13.059.087-19.569-.065a1.68,1.68,0,0,1-1.265-1.452q-.012-3.032-.005-6.065l.2.17c2.282.092,4.6.047,6.9.049" transform="translate(0 -115.909)" fill="#fe4b55"/>
    <path id="Trazado_2" data-name="Trazado 2" d="M121.289,1.065c4.565-.008,9.131.005,13.7,0a1.761,1.761,0,0,1,1.356.748,1.409,1.409,0,0,1,.289.733V8.428c-.13,0-3.835,0-7.67,0q-3.835,0-7.67,0a.507.507,0,0,0,.265-.458V1.523c.007-.216-.125-.328-.265-.458" transform="translate(-114.187 -1)" fill="#f4f4f4"/>
    <path id="Trazado_3" data-name="Trazado 3" d="M7.12.065c.14.13.272.242.265.458V6.969a.507.507,0,0,1-.265.459c-2.3,0-4.615.043-6.9-.049l-.2-.17c0-1.877,0-3.754,0-5.632A1.719,1.719,0,0,1,1.62.066c1.671-.148,3.778,0,5.5,0M2.815,4.15c.1.173-.451,1.19-.257,1.331.212.154.929-.659,1.161-.64a8.077,8.077,0,0,1,.9.635c.217.073.283.01.252-.207-.047-.331-.267-.721-.333-1.057.019-.1.842-.572.959-.748.079-.119.023-.216-.113-.242-.225-.043-1.044.057-1.162-.021C4.107,3.026,3.9,2.042,3.76,2a.2.2,0,0,0-.116,0c-.163.047-.372,1.022-.475,1.215-.087.056-.989-.033-1.2.006-.148.027-.144.188-.065.284.123.151.845.533.91.645" transform="translate(-0.018 0)" fill="#42489b"/>
    <path id="Trazado_4" data-name="Trazado 4" d="M32.268,36.142c-.065-.112-.787-.494-.91-.645-.079-.1-.083-.257.065-.284.21-.039,1.112.05,1.2-.006.1-.193.312-1.168.475-1.215a.2.2,0,0,1,.116,0c.139.045.348,1.028.465,1.2.118.079.937-.022,1.162.021.137.026.192.123.113.242-.117.176-.94.652-.959.748.066.336.286.727.333,1.057.031.216-.035.279-.252.207a8.077,8.077,0,0,0-.9-.635c-.232-.019-.95.794-1.161.64-.194-.141.358-1.158.257-1.331" transform="translate(-29.47 -31.992)" fill="#f2f2f3"/>
  </g>
</svg>
