<svg xmlns="http://www.w3.org/2000/svg" xmlns:xlink="http://www.w3.org/1999/xlink" width="23" height="23" viewBox="0 0 23 23">
  <defs>
    <clipPath id="clip-path">
      <rect id="Rectángulo_6" data-name="Rectángulo 6" width="23" height="23" transform="translate(0 0)" fill="none"/>
    </clipPath>
  </defs>
  <g id="Grupo_10" data-name="Grupo 10" transform="translate(0 0)">
    <g id="Grupo_9" data-name="Grupo 9" transform="translate(0)" clip-path="url(#clip-path)">
      <path id="Trazado_17" data-name="Trazado 17" d="M20.8,23H2.2A2.21,2.21,0,0,1,0,20.8V2.2A2.21,2.21,0,0,1,2.2,0H20.8A2.21,2.21,0,0,1,23,2.2V20.8A2.21,2.21,0,0,1,20.8,23" transform="translate(0)" fill="#abddf5"/>
      <path id="Trazado_18" data-name="Trazado 18" d="M137.841,145.65l.669-.325c1.412-.512,5.146-1.638,6.233-.293a1.468,1.468,0,0,1,.291.6c.364,2.138-2.622,4.231-4.1,5.337a10.3,10.3,0,0,0,1.2.171,9.285,9.285,0,0,1,1.612.036c.4.179.389,1.161-.064,1.306a4.631,4.631,0,0,1-.722.1,29.51,29.51,0,0,1-4.6-.207,35.934,35.934,0,0,1-3.266,1.541,23.362,23.362,0,0,1-2.554.948,1.017,1.017,0,0,1-.4.048,4.073,4.073,0,0,1,1.238-.65,30.882,30.882,0,0,0,3.415-1.864c.058-.044.243-.278.223-.3-3.353-.652-6.184-2.929-5.908-6.626.343-4.6,5.649-6.018,9.445-6.344a12.6,12.6,0,0,1,3.45.051c.379.162.406,1.027.021,1.153-2.95-.024-7.458.588-8.431,3.927a4.842,4.842,0,0,0,3.519,6.323,5.756,5.756,0,0,0,2.585-2.762c.249-.6.617-1.32-.1-1.707-1.02-.55-2.644-.292-3.756-.467" transform="translate(-126.782 -134.469)" fill="#00a5f4"/>
    </g>
  </g>
</svg>
