<?xml version="1.0" encoding="UTF-8"?>
<svg id="Capa_2" data-name="Capa 2" xmlns="http://www.w3.org/2000/svg" viewBox="0 0 1828.98 823.53">
  <defs>
    <style>
      .cls-1 {
        fill: #e3032b;
      }

      .cls-2 {
        fill: #184288;
      }
    </style>
  </defs>
  <g id="Capa_2-2" data-name="Capa 2">
    <g>
      <g>
        <path class="cls-1" d="M451.83,753.93c2.16-4.33,5.11-7.65,8.83-9.98,3.73-2.33,7.89-3.49,12.49-3.49,3.93,0,7.37.8,10.33,2.39,2.96,1.6,5.24,3.69,6.84,6.29v-7.88h17.07v55.72h-17.07v-7.89c-1.66,2.59-3.98,4.69-6.94,6.29-2.96,1.6-6.41,2.39-10.33,2.39-4.53,0-8.65-1.18-12.39-3.54-3.73-2.36-6.67-5.72-8.83-10.08-2.16-4.36-3.24-9.4-3.24-15.13s1.08-10.75,3.24-15.08M486.78,759.02c-2.36-2.46-5.25-3.69-8.64-3.69s-6.27,1.22-8.63,3.64c-2.36,2.43-3.54,5.78-3.54,10.03s1.18,7.65,3.54,10.14c2.36,2.49,5.24,3.74,8.63,3.74s6.28-1.24,8.64-3.7c2.36-2.46,3.54-5.83,3.54-10.08s-1.18-7.62-3.54-10.08"/>
        <path class="cls-1" d="M943.3,753.93c2.36-4.33,5.66-7.65,9.88-9.98,4.23-2.33,9.07-3.5,14.52-3.5,7,0,12.84,1.83,17.53,5.49,4.69,3.66,7.77,8.82,9.23,15.48h-18.17c-1.53-4.26-4.5-6.39-8.89-6.39-3.13,0-5.63,1.21-7.49,3.64-1.86,2.43-2.79,5.91-2.79,10.43s.93,8,2.79,10.43c1.86,2.43,4.36,3.64,7.49,3.64,4.4,0,7.36-2.13,8.89-6.39h18.17c-1.46,6.53-4.56,11.65-9.28,15.37-4.73,3.73-10.55,5.59-17.48,5.59-5.46,0-10.29-1.16-14.52-3.49-4.23-2.33-7.52-5.66-9.88-9.98-2.37-4.33-3.54-9.39-3.54-15.18s1.18-10.85,3.54-15.18"/>
        <path class="cls-1" d="M1014.19,794.27c-4.36-2.33-7.79-5.66-10.28-9.98-2.49-4.33-3.74-9.38-3.74-15.18s1.27-10.76,3.8-15.12c2.53-4.36,5.99-7.7,10.38-10.04,4.4-2.33,9.32-3.49,14.78-3.49s10.38,1.16,14.78,3.49c4.39,2.34,7.85,5.68,10.38,10.04,2.53,4.36,3.79,9.4,3.79,15.12s-1.29,10.77-3.85,15.13c-2.56,4.36-6.05,7.71-10.48,10.03-4.43,2.33-9.37,3.49-14.83,3.49s-10.37-1.16-14.73-3.49M1037.26,779.4c2.3-2.4,3.44-5.83,3.44-10.29s-1.11-7.88-3.34-10.28c-2.23-2.4-4.98-3.59-8.23-3.59s-6.09,1.18-8.28,3.54c-2.2,2.37-3.3,5.81-3.3,10.33s1.08,7.89,3.24,10.29c2.16,2.39,4.88,3.59,8.14,3.59s6.04-1.19,8.33-3.59"/>
        <path class="cls-1" d="M1154.79,746.94c4.1,4.19,6.14,10.02,6.14,17.47v32.55h-16.97v-30.26c0-3.59-.95-6.37-2.85-8.34-1.9-1.96-4.51-2.94-7.84-2.94s-5.95.98-7.84,2.94c-1.89,1.97-2.84,4.75-2.84,8.34v30.26h-16.97v-30.26c0-3.59-.95-6.37-2.84-8.34-1.9-1.96-4.51-2.94-7.84-2.94s-5.94.98-7.84,2.94c-1.9,1.97-2.84,4.75-2.84,8.34v30.26h-17.07v-55.72h17.07v6.98c1.73-2.33,3.99-4.18,6.79-5.54,2.79-1.36,5.96-2.05,9.48-2.05,4.2,0,7.94.91,11.24,2.7,3.29,1.8,5.87,4.36,7.73,7.68,1.93-3.06,4.56-5.55,7.89-7.48,3.33-1.93,6.95-2.9,10.88-2.9,6.93,0,12.43,2.09,16.53,6.3"/>
        <path class="cls-1" d="M1196.88,742.84c2.93-1.59,6.36-2.39,10.28-2.39,4.6,0,8.75,1.17,12.49,3.5,3.73,2.33,6.67,5.66,8.83,9.98,2.16,4.33,3.25,9.35,3.25,15.08s-1.09,10.77-3.25,15.13c-2.16,4.36-5.11,7.72-8.83,10.08-3.73,2.36-7.89,3.54-12.49,3.54-3.86,0-7.28-.79-10.23-2.39-2.96-1.6-5.28-3.66-6.93-6.19v34.35h-17.08v-82.28h17.08v7.89c1.66-2.6,3.95-4.7,6.88-6.3M1210.81,758.97c-2.36-2.43-5.28-3.65-8.73-3.65s-6.28,1.24-8.64,3.7c-2.36,2.46-3.54,5.82-3.54,10.08s1.18,7.62,3.54,10.08c2.36,2.46,5.24,3.69,8.64,3.69s6.29-1.24,8.68-3.74c2.39-2.49,3.59-5.87,3.59-10.13s-1.18-7.61-3.54-10.03"/>
        <path class="cls-1" d="M1240.57,753.93c2.16-4.33,5.11-7.65,8.83-9.98,3.73-2.33,7.89-3.49,12.48-3.49,3.93,0,7.38.8,10.34,2.39,2.96,1.6,5.24,3.69,6.84,6.29v-7.88h17.07v55.72h-17.07v-7.89c-1.66,2.59-3.98,4.69-6.93,6.29-2.96,1.6-6.41,2.39-10.34,2.39-4.53,0-8.65-1.18-12.39-3.54-3.73-2.36-6.67-5.72-8.83-10.08-2.16-4.36-3.24-9.4-3.24-15.13s1.08-10.75,3.24-15.08M1275.51,759.02c-2.36-2.46-5.25-3.69-8.63-3.69s-6.28,1.22-8.64,3.64c-2.36,2.43-3.54,5.78-3.54,10.03s1.18,7.65,3.54,10.14c2.36,2.49,5.25,3.74,8.64,3.74s6.27-1.24,8.63-3.7c2.36-2.46,3.54-5.83,3.54-10.08s-1.18-7.62-3.54-10.08"/>
        <path class="cls-1" d="M1358.09,746.99c3.89,4.23,5.85,10.04,5.85,17.42v32.55h-16.97v-30.25c0-3.73-.97-6.63-2.9-8.69-1.93-2.06-4.53-3.1-7.78-3.1s-5.86,1.04-7.79,3.1c-1.94,2.06-2.9,4.96-2.9,8.69v30.25h-17.07v-55.72h17.07v7.39c1.73-2.46,4.06-4.41,7-5.84,2.93-1.43,6.22-2.15,9.88-2.15,6.53,0,11.74,2.11,15.63,6.34"/>
        <polygon class="cls-1" points="1432.73 741.25 1397.79 823.43 1379.42 823.43 1392.19 795.07 1369.53 741.25 1388.6 741.25 1401.48 776.1 1414.26 741.25 1432.73 741.25"/>
        <path class="cls-1" d="M595.77,784.87c-1.42,3.12-3.35,5.79-5.78,8.02-2.44,2.23-5.28,3.95-8.53,5.16-3.24,1.21-6.7,1.83-10.35,1.83s-7.11-.61-10.35-1.83c-3.25-1.21-6.09-2.94-8.53-5.16-2.43-2.23-4.36-4.9-5.78-8.02-1.42-3.11-2.13-6.54-2.13-10.26v-32.2h17.26v30.98c0,2.84.88,5.17,2.66,7,1.77,1.82,4.06,2.73,6.88,2.73s5.11-.91,6.88-2.73c1.77-1.83,2.66-4.15,2.66-7v-30.98h17.26v32.2c0,3.72-.71,7.15-2.13,10.26"/>
        <path class="cls-1" d="M640.16,798.67v-30.99c0-2.83-.89-5.16-2.66-6.98-1.77-1.82-4.06-2.73-6.88-2.73s-5.11.91-6.88,2.73c-1.77,1.83-2.65,4.16-2.65,6.98v30.99h-17.26v-32.2c0-3.72.71-7.15,2.13-10.27,1.42-3.11,3.34-5.79,5.78-8.02,2.43-2.22,5.28-3.95,8.52-5.16,3.25-1.22,6.7-1.83,10.35-1.83s7.11.61,10.35,1.83c3.24,1.21,6.09,2.94,8.52,5.16,2.44,2.23,4.36,4.91,5.79,8.02,1.42,3.12,2.13,6.55,2.13,10.27v32.2h-17.26Z"/>
        <path class="cls-1" d="M681.73,728.31c0,2.59-.93,4.81-2.79,6.68-1.87,1.86-4.1,2.79-6.69,2.79s-4.8-.93-6.62-2.79c-1.82-1.87-2.73-4.09-2.73-6.68s.93-4.82,2.79-6.69c1.86-1.86,4.09-2.79,6.68-2.79,1.29,0,2.51.26,3.64.79,1.13.53,2.13,1.22,2.98,2.06.85.86,1.52,1.84,2,2.98.49,1.14.73,2.36.73,3.65M663.75,742.4h17.14v56.26h-17.14v-56.26Z"/>
        <path class="cls-1" d="M716.09,732.37c-2.84,0-5.33.74-7.48,2.24-2.14,1.5-3.22,3.79-3.22,6.86v.92h9.72v16.04h-9.72v40.22h-17.26v-55.36c0-3.56.59-6.93,1.77-10.08,1.19-3.16,2.89-5.91,5.08-8.27,2.21-2.34,4.83-4.19,7.89-5.53,3.05-1.34,6.4-2.01,10.05-2.01,1.38,0,2.71.1,4.01.31,1.29.2,2.59.39,3.88.55v14.7c-1.78-.4-3.36-.61-4.73-.61"/>
        <path class="cls-1" d="M744.47,757.84c-2.51,0-4.62.71-6.32,2.14-1.7,1.43-2.55,3.43-2.55,6.03v32.67h-17.26v-35.12c0-3.15.59-6.09,1.78-8.81,1.18-2.71,2.81-5.06,4.9-7.05,2.08-1.98,4.51-3.54,7.28-4.67,2.76-1.14,5.73-1.71,8.89-1.71.81,0,1.6.04,2.38.13.76.08,1.56.2,3.43.36v16.17c-1.39-.08-1.88-.12-2.53-.12"/>
        <path class="cls-1" d="M805.51,784.87c-1.42,3.12-3.35,5.79-5.78,8.02-2.44,2.23-5.28,3.95-8.53,5.16-3.24,1.21-6.7,1.83-10.35,1.83s-7.1-.61-10.35-1.83c-3.25-1.21-6.09-2.94-8.53-5.16-2.43-2.23-4.36-4.9-5.78-8.02-1.43-3.11-2.13-6.54-2.13-10.26v-32.2h17.26v30.98c0,2.84.88,5.17,2.65,7,1.77,1.82,4.07,2.73,6.88,2.73s5.11-.91,6.89-2.73c1.77-1.83,2.65-4.15,2.65-7v-30.98h17.26v32.2c0,3.72-.71,7.15-2.13,10.26"/>
        <path class="cls-1" d="M838.69,799.15c-3.65,0-6.85-.58-9.57-1.76-2.73-1.18-5-2.81-6.8-4.93-1.79-2.1-3.12-4.6-3.97-7.47-.86-2.88-1.29-6.05-1.29-9.53v-51.24h17.26v18.19h10.15v16.04h-10.15v15.57c.05,2.85.61,4.51,2.46,6.64,2.01,2.29,7.83,3.31,11.55,2.79l-.14,14.47c-3.19.93-7.88,1.23-9.5,1.23"/>
        <path class="cls-1" d="M876.66,799.15c-3.65,0-6.84-.58-9.57-1.76-2.73-1.18-5-2.81-6.79-4.93-1.79-2.1-3.13-4.6-3.98-7.47-.85-2.88-1.28-6.05-1.28-9.53v-51.24h17.26v18.19h10.15v16.04h-10.15v15.57c.04,2.85.6,4.51,2.46,6.64,2.01,2.29,7.83,3.31,11.55,2.79l-.13,14.47c-3.19.93-7.89,1.23-9.51,1.23"/>
        <path class="cls-1" d="M911.27,728.52c0,2.59-.94,4.82-2.79,6.68-1.86,1.87-4.1,2.8-6.69,2.8s-4.8-.93-6.61-2.8c-1.83-1.86-2.74-4.08-2.74-6.68s.93-4.82,2.79-6.68c1.87-1.86,4.1-2.79,6.68-2.79,1.29,0,2.51.26,3.65.79,1.13.53,2.12,1.21,2.98,2.07.84.84,1.52,1.84,2,2.98.49,1.13.73,2.34.73,3.64M893.28,742.4h17.13v56.26h-17.13v-56.26Z"/>
      </g>
      <g>
        <path class="cls-2" d="M874.94,379.32c-16.65,0-29.93,3.48-43.11,10.43-13.2,6.96-27.6,19.69-43.21,38.19l11.48-42.73h-110.59l-6.02,22.37c-5.32-4.2-11.21-8-17.82-11.32-22.5-11.3-55.82-16.94-99.94-16.94-54.38,0-100.38,12.6-138.03,37.82-37.65,25.21-61.95,58.2-72.9,98.97-7.71,28.65-6.71,53.58,2.97,74.78,9.68,21.21,24.92,36.68,45.72,46.42,20.79,9.73,51.6,14.61,92.44,14.61,47.02,0,84.64-5.7,112.85-17.07,5.25-2.11,10.42-4.58,15.55-7.2l-4.94,18.38h118.71l23.51-87.43c11.22-41.74,24.98-70.24,41.26-85.46,11.42-10.81,23.28-17.41,38.71-18.62,16.04-1.26,22.8-.84,37.51,3.47l26.43-72.57s-11.71-6.09-30.6-6.09M504.68,457.41c14.61-12.6,31.3-18.91,50.07-18.91,16.26,0,28.24,4.17,35.97,12.52,7.72,8.35,10.14,22.19,7.27,41.5h-116.39c6.11-15.55,13.81-27.26,23.08-35.12M574.42,569.4c-9.47,7.86-17.81,13.35-25.03,16.46-11.77,4.91-23.46,7.36-35.07,7.36-18.39,0-31.77-5.65-40.14-16.94-6.01-7.86-7.93-19.81-5.75-35.86h179.35l-9.17,34.1-64.19-5.12Z"/>
        <polygon class="cls-2" points="308.95 396.65 203.16 531.27 99.74 396.65 0 396.65 206.58 648.02 413.15 396.65 308.95 396.65"/>
        <path class="cls-1" d="M1103.02,385.02h-56.43c3.13-11.62,5.65-19.24,7.59-22.84,3.69-6.55,8.28-11.33,13.74-14.37,5.46-3.03,13.51-4.55,24.15-4.55,8.71,0,19.86.98,33.46,2.94l29.3-60.41c-38.37-4.09-67.92-6.14-88.63-6.14-25.93,0-46.29,2.5-61.08,7.49-14.79,5-27,11.55-36.62,19.65-9.63,8.11-17.52,18.54-23.66,31.31-6.15,12.77-10.64,24.48-13.5,35.12l-3.18,11.79-22.62.39-26.91,72.57,29.85.23-50.43,187.63h118.43l50.44-187.63h56.31"/>
        <path class="cls-1" d="M1100.3,385.02h113.31l-11.49,42.73c15.61-18.5,30.02-31.23,43.21-38.19,13.19-6.96,28.11-10.44,44.75-10.44,11.83,0,27.88,1.2,45.53,2.46l78.22,3.43-38.56,143.42c-4.4,16.37-3.94,28,1.37,34.87,5.3,6.88,14.45,10.32,27.42,10.32,14.12,0,26.92-4.58,38.38-13.75,11.47-9.17,20.38-25.62,26.76-49.36l33.74-125.5h142.59l12.87-47.89,132.23-51.33-26.67,99.22h65.01l-19.67,73.19h-65.03l-24.83,92.4c-2.99,11.12-3.71,18.46-2.16,22.06,2.37,5.56,8.4,8.33,18.07,8.33,8.72,0,21.47-2.12,38.29-6.37l-9.84,69c-30.67,5.4-58.68,8.1-84.04,8.1-29.4,0-50.22-3.19-62.44-9.57-12.22-6.38-19.92-16.06-23.1-29.07-3.18-13-.86-34.05,6.96-63.16l24.66-91.73h-24.45l-50.44,187.63h-110.3l11.36-42.24c-21.12,17.36-41.04,29.72-59.75,37.09-18.72,7.36-40.28,11.05-64.65,11.05-32.51,0-55.8-8.22-69.85-24.68-14.06-16.46-16.49-41.78-7.28-76.01l21.59-92.05c-5.76-1.46-10.92-2.26-15.35-2.26-15.48,0-28.93,5.4-40.35,16.21-16.27,15.22-30.03,43.71-41.26,85.46l-23.51,87.43h-118.72l50.44-187.6-3.16-.02"/>
        <path class="cls-1" d="M277.07,320.2c-.12,39.44-31.55,70.97-70.67,70.92-39.31-.06-70.45-31.84-70.33-71.77.12-38.87,31.84-70.49,70.64-70.45,38.91.04,70.48,32.04,70.36,71.3"/>
        <path class="cls-2" d="M255.86,189.17c2.01-1.76,3.92-3.63,6.04-5.24,35.77-27.28,74.86-49.04,115.27-68.52,71.75-34.57,146.78-59.76,224.2-78.13,48.03-11.4,96.56-19.76,145.5-25.96C827.13,1.15,907.74-1.85,988.47,1.05c41.44,1.49,82.88,5.08,124.15,9.35,82.16,8.5,162.78,25.14,241.88,49,79.51,23.99,156.13,54.9,228.19,96.47,16.84,9.72,32.94,20.76,49.35,31.24,1.99,1.27,4.12,2.53,5.65,4.26,1.28,1.44,1.76,3.58,2.59,5.41-2.01.34-4.21,1.38-5.98.89-3.63-1.02-7.3-2.45-10.5-4.43-61.06-37.67-127.59-62.51-195.77-83.39-55.03-16.84-111.04-29.7-167.77-39.13-34.99-5.81-70.15-10.94-105.43-14.54-42.91-4.38-85.98-7.41-129.04-9.98-61.34-3.64-122.77-3.38-184.12-.62-41.81,1.89-83.56,5.52-125.27,9.33-57.32,5.25-114.01,14.8-170.12,27.6-69.87,15.94-138.11,36.92-202.62,68.62-20.05,9.85-39.01,21.91-58.71,32.49-6.61,3.55-13.9,5.92-21.07,8.27-2.23.73-5.07-.38-7.64-.64-.13-.7-.26-1.39-.39-2.09"/>
      </g>
    </g>
  </g>
</svg>