<svg id="Grupo_6" data-name="Grupo 6" xmlns="http://www.w3.org/2000/svg" xmlns:xlink="http://www.w3.org/1999/xlink" width="22.442" height="22.442" viewBox="0 0 22.442 22.442">
  <defs>
    <clipPath id="clip-path">
      <rect id="Rectángulo_4" data-name="Rectángulo 4" width="22.442" height="22.442" fill="none"/>
    </clipPath>
  </defs>
  <g id="Grupo_5" data-name="Grupo 5" clip-path="url(#clip-path)">
    <path id="Trazado_9" data-name="Trazado 9" d="M19.234,3.207c.079,4.732,0,9.5-.074,14.226a2.456,2.456,0,0,1-1.769,1.737c-4.712.061-9.466.138-14.185.064a4.363,4.363,0,0,1-1.7-.176A2.463,2.463,0,0,1,.008,17.1L0,2.229A2.458,2.458,0,0,1,2.229,0L17.1.008c1.873.387,2.107,1.514,2.135,3.2M10.419,8.817V4.635c0-.329-.51-.638-.826-.63-.3.007-.776.325-.776.63V8.817H4.635c-.329,0-.638.51-.63.826.007.3.325.776.63.776H8.817V14.6c0,.329.51.638.826.63.3-.007.776-.325.776-.63V10.419H14.6c.329,0,.638-.51.63-.826-.007-.3-.325-.776-.63-.776Z" fill="#8ac24a"/>
    <path id="Trazado_10" data-name="Trazado 10" d="M47.841,63.869c4.72.074,9.474,0,14.185-.064a2.456,2.456,0,0,0,1.769-1.737c.075-4.722.153-9.494.073-14.226a4.258,4.258,0,0,1,1.7.176,2.463,2.463,0,0,1,1.5,1.959l.008,14.871a2.458,2.458,0,0,1-2.229,2.229l-14.871-.008a2.463,2.463,0,0,1-1.959-1.5,4.258,4.258,0,0,1-.176-1.7" transform="translate(-44.634 -44.634)" fill="#689e38"/>
    <path id="Trazado_11" data-name="Trazado 11" d="M66.263,64.66h4.182c.305,0,.623.48.63.776.008.316-.3.826-.63.826H66.263v4.182c0,.305-.48.623-.776.63-.316.008-.826-.3-.826-.63V66.263H60.478c-.305,0-.623-.48-.63-.776-.008-.316.3-.826.63-.826H64.66V60.478c0-.305.48-.623.776-.63.316-.008.826.3.826.63Z" transform="translate(-55.844 -55.844)" fill="#f4f4f4"/>
  </g>
</svg>
